{"glyphs":{"0":{"ha":287,"x_min":28,"x_max":259,"o":"m 259 808 l 259 124 q 231 25 259 57 q 144 -7 203 -7 q 33 63 55 -7 q 28 119 28 78 l 28 795 q 41 875 28 849 q 144 936 71 936 q 210 918 181 936 q 252 868 239 899 q 259 808 259 848 m 128 816 l 128 111 q 145 88 128 88 q 158 93 155 88 q 161 114 161 98 l 161 814 q 144 838 161 838 q 128 816 128 838 z "},"1":{"ha":345,"x_min":102,"x_max":243,"o":"m 102 927 l 243 927 l 243 0 l 139 0 l 139 827 l 102 827 l 102 927 z "},"2":{"ha":290,"x_min":30,"x_max":262,"o":"m 130 647 l 32 647 l 32 806 q 43 872 32 845 q 84 918 56 901 q 147 935 112 935 q 232 904 201 935 q 262 817 262 873 l 262 631 q 236 501 262 553 l 155 340 q 153 336 155 339 q 129 235 129 291 l 129 98 l 259 98 l 259 0 l 31 0 l 31 214 l 31 219 q 39 300 30 269 q 74 387 47 333 l 140 516 q 166 626 168 569 l 166 813 q 149 836 166 836 q 130 812 130 836 l 130 647 z "},"3":{"ha":290,"x_min":28,"x_max":262,"o":"m 125 641 l 28 641 l 28 810 q 52 896 28 869 q 147 935 86 935 q 258 806 258 935 l 260 559 q 251 498 261 520 q 216 461 241 476 q 260 360 260 435 l 262 107 q 239 31 262 56 q 143 -7 203 -7 q 60 23 89 -7 q 31 109 31 53 l 31 285 l 130 285 l 130 121 l 130 117 q 147 90 130 90 q 163 117 163 90 l 163 387 q 157 414 163 408 q 126 420 151 419 l 87 421 l 87 509 l 124 510 q 155 517 148 510 q 162 547 162 524 l 161 809 q 144 840 161 840 q 125 808 125 840 l 125 641 z "},"4":{"ha":348,"x_min":20,"x_max":328,"o":"m 132 926 l 283 926 l 283 336 l 328 336 l 328 230 l 283 230 l 283 0 l 179 0 l 179 230 l 66 230 l 20 300 l 132 926 m 179 336 l 179 743 l 114 336 l 179 336 z "},"5":{"ha":294,"x_min":31,"x_max":264,"o":"m 31 461 l 31 926 l 257 926 l 257 825 l 131 825 l 131 584 q 191 604 158 604 q 264 487 264 604 l 264 138 q 236 28 264 63 q 146 -7 207 -7 q 37 62 58 -7 q 31 131 31 82 l 31 285 l 130 285 l 130 126 l 130 121 q 147 93 130 93 q 161 99 158 93 q 164 125 164 105 l 164 483 q 148 510 164 510 q 131 482 132 510 l 130 461 l 31 461 z "},"6":{"ha":289,"x_min":30,"x_max":258,"o":"m 257 676 l 161 676 l 161 806 q 158 833 161 828 q 146 839 156 839 q 130 809 128 839 l 131 568 q 195 597 162 597 q 243 572 229 597 q 258 492 258 547 l 258 125 q 241 38 258 63 q 146 -7 212 -7 q 79 10 109 -7 q 37 56 49 27 q 30 111 30 77 l 30 787 q 44 883 30 857 q 146 936 73 936 q 231 901 204 936 q 257 789 257 866 l 257 676 m 131 467 l 131 112 q 146 90 131 90 q 160 113 160 90 l 160 463 q 146 491 160 491 q 131 467 131 491 z "},"7":{"ha":316,"x_min":50,"x_max":266,"o":"m 50 825 l 50 926 l 266 926 l 178 0 l 77 0 l 157 823 l 50 825 z "},"8":{"ha":292,"x_min":32,"x_max":262,"o":"m 219 465 q 261 368 262 439 l 261 124 q 237 31 261 59 q 144 -7 204 -7 q 62 20 92 -7 q 32 96 32 47 l 32 376 q 40 425 32 407 q 71 463 46 439 q 39 498 47 481 q 32 549 32 514 l 32 819 q 150 936 32 936 q 237 903 212 936 q 262 787 262 869 l 262 557 q 253 500 262 518 q 219 465 243 480 m 129 817 l 130 812 l 130 530 l 129 526 q 144 507 128 507 q 159 530 159 507 l 159 812 l 159 815 q 156 833 158 829 q 144 837 153 837 q 129 817 127 837 m 130 403 l 130 110 q 143 90 130 90 q 159 109 159 90 l 159 401 q 144 420 159 420 q 130 403 130 420 z "},"9":{"ha":294,"x_min":29,"x_max":264,"o":"m 31 114 l 31 293 l 130 293 l 130 125 l 130 117 q 149 94 130 94 q 164 127 164 94 l 163 430 q 109 412 138 412 q 52 437 75 412 q 30 500 30 462 l 30 798 q 43 868 30 840 q 85 917 56 899 q 148 936 114 936 q 213 916 183 936 q 256 861 242 895 q 264 787 264 840 l 264 127 q 251 54 264 84 q 210 9 238 26 q 148 -7 182 -7 q 80 10 110 -7 q 39 55 50 27 q 31 114 30 76 m 131 812 l 131 534 q 147 509 131 509 q 164 534 164 509 l 164 815 q 148 838 164 838 q 131 812 131 838 z "},"\u0000":{"ha":0,"x_min":0,"x_max":0,"o":""},"\r":{"ha":347,"x_min":0,"x_max":0,"o":""}," ":{"ha":102,"x_min":0,"x_max":0,"o":""},"!":{"ha":179,"x_min":28,"x_max":152,"o":"m 45 928 l 143 928 l 143 173 l 45 173 l 45 928 m 89 119 q 134 100 115 119 q 152 54 152 81 q 134 11 152 28 q 91 -7 117 -7 q 47 12 65 -7 q 28 57 28 31 q 45 101 28 83 q 89 119 63 119 z "},"\"":{"ha":120,"x_min":28,"x_max":92,"o":"m 28 752 l 28 917 l 52 917 l 52 752 l 28 752 m 68 752 l 68 917 l 92 917 l 92 752 l 68 752 z "},"#":{"ha":419,"x_min":18,"x_max":400,"o":"m 311 383 l 378 383 l 376 305 l 303 305 l 275 0 l 192 0 l 220 305 l 174 305 l 146 0 l 64 0 l 92 305 l 18 305 l 20 383 l 99 383 l 115 561 l 42 561 l 43 639 l 123 639 l 149 926 l 231 926 l 205 639 l 252 639 l 278 926 l 361 926 l 334 639 l 400 639 l 399 561 l 327 561 l 311 383 m 228 383 l 244 561 l 197 561 l 182 383 l 228 383 z "},"$":{"ha":297,"x_min":28,"x_max":274,"o":"m 104 932 l 198 932 l 198 788 q 271 669 271 755 l 271 587 l 161 587 l 161 675 q 148 699 161 699 q 134 680 134 699 l 134 551 q 140 522 134 529 q 164 514 146 515 l 185 514 q 271 435 271 514 l 271 260 q 199 144 274 184 l 199 2 l 102 2 l 102 145 q 31 271 28 181 l 31 335 l 134 335 l 134 263 q 136 238 134 243 q 148 233 138 233 q 161 252 161 233 l 162 380 q 156 406 162 400 q 129 412 150 412 l 115 412 q 30 488 30 412 l 30 659 q 46 739 30 709 q 104 791 63 769 l 104 932 z "},"%":{"ha":571,"x_min":28,"x_max":543,"o":"m 107 23 l 356 907 l 456 888 l 206 2 l 107 23 m 543 304 l 543 113 q 431 -16 543 -16 q 349 16 377 -16 q 320 107 320 47 l 320 298 q 371 418 320 384 q 432 435 399 435 q 514 401 485 435 q 543 304 543 366 m 446 111 l 446 313 q 431 336 446 336 q 416 312 416 336 l 416 109 q 431 85 416 85 q 446 111 446 85 m 251 807 l 251 616 q 140 487 251 487 q 28 610 28 487 l 28 801 q 79 920 28 886 q 140 938 106 938 q 222 903 193 938 q 251 807 251 869 m 153 614 l 153 816 q 138 839 153 839 q 123 814 123 839 l 123 611 q 138 587 123 587 q 153 614 153 587 z "},"&":{"ha":320,"x_min":28,"x_max":292,"o":"m 164 103 l 164 359 l 292 359 l 292 261 l 262 262 l 262 101 q 149 -18 262 -18 q 60 12 92 -18 q 28 93 28 41 l 29 387 q 71 452 29 426 q 30 533 28 475 l 30 816 q 45 878 30 850 q 150 931 79 931 q 236 899 208 931 q 263 798 263 866 l 263 635 l 165 635 l 166 796 q 163 823 166 817 q 149 829 160 829 q 130 798 130 829 l 129 530 q 134 508 129 513 q 160 503 140 503 l 216 503 l 216 408 l 157 408 q 132 402 138 408 q 127 376 127 396 l 127 104 q 130 83 127 88 q 144 79 134 79 q 160 84 156 79 q 164 103 164 89 z "},"'":{"ha":79,"x_min":28,"x_max":52,"o":"m 28 752 l 28 917 l 52 917 l 52 752 l 28 752 z "},"(":{"ha":172,"x_min":28,"x_max":144,"o":"m 144 -12 l 144 -104 q 58 -71 88 -104 q 28 23 28 -38 l 28 887 q 58 992 28 956 q 144 1028 87 1028 l 144 932 q 127 903 127 928 l 127 29 q 130 -1 127 6 q 144 -12 133 -7 z "},")":{"ha":172,"x_min":28,"x_max":145,"o":"m 28 -104 l 28 -12 q 43 -1 40 -7 q 45 29 45 6 l 45 903 q 28 932 46 928 l 28 1028 q 115 992 85 1028 q 145 887 145 956 l 145 23 q 117 -68 145 -38 q 28 -104 85 -103 z "},"*":{"ha":173,"x_min":28,"x_max":146,"o":"m 98 942 l 92 920 q 92 918 92 920 q 91 915 91 916 q 90 911 90 913 q 95 906 90 906 q 106 912 100 906 l 121 927 q 134 934 128 934 q 145 919 145 934 q 132 907 145 911 l 110 901 q 100 895 100 899 q 107 888 100 890 l 133 882 q 146 869 146 880 q 135 857 146 857 q 119 866 130 857 l 104 880 q 96 884 100 884 q 90 880 90 884 q 91 871 90 877 l 97 849 q 98 840 98 842 q 87 830 98 830 q 75 840 75 830 q 77 849 75 843 l 82 871 q 83 873 82 872 q 84 879 84 878 q 77 884 84 884 q 68 880 73 884 l 54 866 q 39 857 43 857 q 28 871 28 857 q 40 882 28 879 l 66 888 q 74 895 74 890 q 64 901 74 899 l 41 907 q 28 919 28 909 q 40 934 28 934 q 52 927 45 934 l 66 912 q 78 906 73 906 q 83 911 83 906 q 81 920 83 913 l 75 942 q 75 943 75 942 q 73 950 73 949 q 87 960 73 960 q 100 950 100 960 q 98 942 100 949 z "},"+":{"ha":361,"x_min":28,"x_max":334,"o":"m 28 481 l 132 481 l 132 635 l 225 635 l 225 481 l 334 481 l 334 385 l 225 385 l 225 231 l 132 231 l 132 385 l 28 385 l 28 481 z "},",":{"ha":179,"x_min":31,"x_max":151,"o":"m 49 -51 l 44 -41 q 81 -1 73 -20 q 45 19 59 2 q 31 59 31 36 q 48 103 31 85 q 90 121 65 121 q 134 103 116 121 q 151 59 151 85 q 122 -6 151 26 q 49 -51 92 -38 z "},"-":{"ha":198,"x_min":28,"x_max":170,"o":"m 28 385 l 28 481 l 170 481 l 170 385 l 28 385 z "},".":{"ha":177,"x_min":28,"x_max":148,"o":"m 88 122 q 131 105 114 122 q 148 61 148 87 q 130 18 148 36 q 88 0 113 0 q 45 18 63 0 q 28 62 28 36 q 45 105 28 88 q 88 122 62 122 z "},"/":{"ha":265,"x_min":28,"x_max":237,"o":"m 28 -1 l 174 928 l 237 928 l 88 -1 l 28 -1 z "},":":{"ha":177,"x_min":28,"x_max":149,"o":"m 90 327 q 132 310 115 327 q 149 266 149 292 q 132 223 149 241 q 90 205 114 205 q 47 223 64 205 q 29 267 29 241 q 46 310 29 293 q 90 327 63 327 m 88 122 q 131 105 114 122 q 148 61 148 87 q 130 18 148 36 q 88 0 113 0 q 45 18 63 0 q 28 62 28 36 q 45 105 28 88 q 88 122 62 122 z "},";":{"ha":179,"x_min":28,"x_max":151,"o":"m 49 -51 l 44 -41 q 81 -1 73 -20 q 45 19 59 2 q 31 59 31 36 q 47 103 31 85 q 90 121 64 121 q 134 103 116 121 q 151 59 151 85 q 122 -6 151 26 q 49 -51 92 -38 m 88 325 q 131 308 114 325 q 148 264 148 290 q 130 221 148 239 q 88 203 113 203 q 45 221 63 203 q 28 264 28 239 q 45 308 28 291 q 88 325 62 325 z "},"<":{"ha":386,"x_min":28,"x_max":358,"o":"m 28 469 l 358 646 l 358 554 l 127 434 l 358 315 l 358 222 l 28 400 l 28 469 z "},"=":{"ha":361,"x_min":28,"x_max":334,"o":"m 28 473 l 28 559 l 334 559 l 334 473 l 28 473 m 28 299 l 28 386 l 334 386 l 334 299 l 28 299 z "},">":{"ha":386,"x_min":28,"x_max":358,"o":"m 28 554 l 28 646 l 358 469 l 358 400 l 28 222 l 28 315 l 258 434 l 28 554 z "},"?":{"ha":287,"x_min":28,"x_max":260,"o":"m 127 648 l 28 648 l 28 794 q 142 937 28 937 q 227 903 195 937 q 258 814 258 870 l 259 664 q 237 513 260 571 l 216 463 q 196 361 196 414 l 196 173 l 99 173 l 99 400 q 117 487 99 446 l 136 530 q 138 534 138 532 q 159 653 159 576 l 159 814 q 144 840 159 840 q 127 811 127 840 l 127 648 m 105 102 q 114 111 105 102 q 150 120 123 120 q 194 102 176 120 q 212 56 212 83 q 194 12 212 29 q 152 -6 177 -6 q 106 12 125 -6 q 87 57 87 31 q 105 102 87 84 z "},"@":{"ha":614,"x_min":28,"x_max":587,"o":"m 505 184 l 558 163 q 475 45 515 84 q 326 -15 414 -15 q 110 124 191 -15 q 28 460 28 263 q 131 831 28 684 q 217 912 168 884 q 320 941 267 941 q 477 870 408 941 q 559 731 530 816 q 587 543 587 646 q 488 235 587 336 q 404 187 440 187 q 374 205 385 187 q 363 256 363 224 l 363 267 q 277 193 330 193 q 189 255 223 193 q 156 418 156 317 q 195 616 156 529 q 309 707 235 707 q 404 609 376 707 l 413 690 l 463 690 l 420 326 q 416 278 416 291 q 431 253 416 253 q 475 304 445 253 q 524 526 524 385 q 473 760 524 662 q 407 839 450 807 q 319 869 367 869 q 243 844 280 869 q 179 774 205 819 q 102 458 102 644 q 170 165 102 287 q 237 87 195 119 q 326 57 277 57 q 419 87 377 57 q 505 184 461 117 m 312 622 q 256 566 278 622 q 233 424 233 509 q 250 315 233 356 q 293 273 266 273 q 349 333 328 273 q 370 487 370 394 q 312 622 370 622 z "},"A":{"ha":330,"x_min":18,"x_max":311,"o":"m 79 926 l 229 926 l 311 0 l 205 0 l 192 179 l 132 179 l 122 0 l 18 0 l 79 926 m 186 277 l 157 710 l 136 277 l 186 277 z "},"B":{"ha":286,"x_min":28,"x_max":258,"o":"m 28 0 l 28 926 l 171 926 q 258 819 258 926 l 258 563 q 246 505 258 527 q 205 465 234 482 q 248 427 237 445 q 258 372 258 408 l 258 111 q 233 30 258 60 q 164 0 208 0 l 28 0 m 130 833 l 130 514 l 140 514 q 155 517 153 514 q 158 534 158 520 l 158 812 q 156 830 158 827 q 146 833 154 833 l 130 833 m 130 412 l 130 96 l 139 96 q 156 99 153 96 q 159 120 159 102 l 159 387 q 156 409 159 405 q 140 412 153 412 l 130 412 z "},"C":{"ha":273,"x_min":28,"x_max":255,"o":"m 255 630 l 159 630 l 159 810 q 156 833 159 828 q 142 839 153 839 q 125 814 125 839 l 125 122 q 129 97 125 103 q 142 92 132 92 q 159 115 159 92 l 159 299 l 254 299 l 254 113 q 235 39 254 66 q 139 -7 202 -7 q 58 21 88 -7 q 28 97 28 49 l 28 803 q 140 936 28 936 q 223 909 192 936 q 255 838 255 882 l 255 630 z "},"D":{"ha":283,"x_min":28,"x_max":256,"o":"m 28 0 l 28 926 l 146 926 q 256 829 256 926 l 256 103 q 152 0 256 0 l 28 0 m 128 833 l 129 97 l 138 97 q 161 130 161 97 l 161 800 q 156 827 161 820 q 138 833 151 833 l 128 833 z "},"E":{"ha":229,"x_min":28,"x_max":210,"o":"m 28 0 l 28 926 l 210 926 l 210 834 l 130 834 l 130 513 l 210 513 l 210 420 l 130 420 l 130 96 l 210 96 l 210 0 l 28 0 z "},"F":{"ha":229,"x_min":28,"x_max":210,"o":"m 28 0 l 28 926 l 210 926 l 210 834 l 130 834 l 130 513 l 210 513 l 210 420 l 130 420 l 130 0 l 28 0 z "},"G":{"ha":279,"x_min":28,"x_max":256,"o":"m 142 358 l 142 476 l 256 476 l 256 106 q 225 23 256 54 q 142 -7 195 -7 q 58 20 88 -7 q 28 98 28 48 l 28 795 q 47 887 28 856 q 142 936 79 936 q 201 921 174 936 q 243 882 229 906 q 253 825 253 863 l 253 629 l 160 629 l 160 806 q 157 834 160 828 q 144 840 155 840 q 126 818 126 840 l 126 105 q 142 85 126 85 q 159 108 159 85 l 159 358 l 142 358 z "},"H":{"ha":288,"x_min":28,"x_max":260,"o":"m 161 926 l 260 926 l 260 0 l 161 0 l 161 414 l 130 414 l 130 0 l 28 0 l 28 926 l 130 926 l 130 515 l 161 515 l 161 926 z "},"I":{"ha":157,"x_min":28,"x_max":130,"o":"m 28 926 l 130 926 l 130 0 l 28 0 l 28 926 z "},"J":{"ha":201,"x_min":15,"x_max":174,"o":"m 71 926 l 174 926 l 174 122 q 163 43 174 66 q 55 -3 137 -3 q 15 1 33 -3 l 15 88 q 33 86 25 86 q 62 99 54 86 q 71 144 71 112 l 71 926 z "},"K":{"ha":310,"x_min":28,"x_max":291,"o":"m 28 0 l 28 926 l 128 926 l 128 537 l 178 926 l 281 926 l 210 440 l 291 0 l 179 0 l 130 338 l 130 0 l 28 0 z "},"L":{"ha":224,"x_min":28,"x_max":210,"o":"m 28 0 l 28 926 l 130 926 l 130 96 l 210 96 l 210 0 l 28 0 z "},"M":{"ha":410,"x_min":28,"x_max":382,"o":"m 253 926 l 382 926 l 382 0 l 287 0 l 286 543 l 235 0 l 166 0 l 128 539 l 127 0 l 28 0 l 28 926 l 177 926 l 207 421 l 253 926 z "},"N":{"ha":317,"x_min":28,"x_max":290,"o":"m 28 0 l 28 926 l 134 926 l 200 392 l 200 926 l 290 926 l 290 0 l 179 0 l 121 463 l 123 0 l 28 0 z "},"O":{"ha":285,"x_min":28,"x_max":257,"o":"m 257 808 l 257 117 q 239 37 257 62 q 141 -7 207 -7 q 55 25 83 -7 q 28 127 28 58 l 28 781 q 45 882 28 850 q 144 936 77 936 q 229 903 200 936 q 257 808 257 871 m 125 805 l 125 118 q 144 87 125 87 q 163 120 163 87 l 163 804 q 159 832 163 825 q 144 839 155 839 q 129 832 132 839 q 125 805 125 825 z "},"P":{"ha":274,"x_min":28,"x_max":256,"o":"m 28 0 l 28 926 l 149 926 q 256 837 256 926 l 256 487 q 231 411 256 438 q 162 384 206 384 l 129 384 l 129 0 l 28 0 m 138 834 l 129 834 l 128 477 l 134 477 q 155 483 151 477 q 159 510 159 489 l 159 813 q 138 834 159 836 z "},"Q":{"ha":283,"x_min":28,"x_max":264,"o":"m 231 35 l 264 -2 l 207 -60 l 156 -5 q 134 -7 141 -7 q 75 12 102 -7 q 36 58 47 30 q 28 117 28 80 l 28 805 q 39 873 28 848 q 81 918 50 899 q 145 936 111 936 q 208 919 179 936 q 248 873 236 901 q 256 812 256 853 l 256 123 q 231 35 256 68 m 126 808 l 126 117 q 142 93 126 93 q 158 121 158 93 l 158 809 q 142 839 158 839 q 126 808 126 839 z "},"R":{"ha":280,"x_min":28,"x_max":256,"o":"m 28 0 l 28 926 l 140 926 q 223 901 194 926 q 252 827 252 875 l 252 517 q 241 467 252 491 q 212 433 230 443 q 256 346 256 413 l 256 0 l 155 0 l 155 364 q 136 387 155 387 l 127 387 l 127 0 l 28 0 m 127 832 l 127 477 q 138 477 132 477 q 152 481 149 477 q 155 503 155 486 l 155 803 q 152 827 155 821 q 136 832 148 832 l 127 832 z "},"S":{"ha":264,"x_min":16,"x_max":253,"o":"m 248 633 l 149 633 l 149 806 q 146 831 149 825 q 132 838 142 838 q 120 833 123 838 q 118 813 118 829 l 118 541 q 121 521 118 526 q 136 517 124 517 l 171 517 q 249 431 253 516 l 249 117 q 132 -7 249 -7 q 51 22 81 -7 q 20 102 20 52 l 20 296 l 119 296 l 119 123 q 121 99 119 104 q 134 94 124 94 q 146 99 143 94 q 149 123 149 105 l 149 388 q 144 415 149 410 q 119 420 139 420 l 96 420 q 16 497 16 420 l 16 805 q 39 894 16 865 q 130 936 71 936 q 217 903 185 936 q 248 812 248 869 l 248 633 z "},"T":{"ha":263,"x_min":14,"x_max":249,"o":"m 14 926 l 249 926 l 249 829 l 182 829 l 182 0 l 82 0 l 82 829 l 14 829 l 14 926 z "},"U":{"ha":288,"x_min":28,"x_max":260,"o":"m 157 926 l 260 926 l 260 121 q 234 31 260 61 q 139 -7 201 -7 q 57 21 85 -7 q 28 102 28 50 l 28 926 l 124 926 l 125 117 q 141 92 125 92 q 157 115 157 92 l 157 926 z "},"V":{"ha":311,"x_min":18,"x_max":292,"o":"m 194 926 l 292 926 l 240 0 l 85 0 l 18 926 l 120 926 l 159 342 l 194 926 z "},"W":{"ha":437,"x_min":18,"x_max":418,"o":"m 313 926 l 418 926 l 334 0 l 237 0 l 217 503 l 184 0 l 81 0 l 18 926 l 125 926 l 145 496 l 182 926 l 254 926 l 281 491 l 313 926 z "},"X":{"ha":332,"x_min":18,"x_max":313,"o":"m 209 926 l 313 926 l 236 471 l 313 0 l 208 0 l 168 332 l 122 0 l 18 0 l 103 477 l 29 926 l 136 926 l 165 602 l 209 926 z "},"Y":{"ha":323,"x_min":18,"x_max":304,"o":"m 201 926 l 304 926 l 211 341 l 211 0 l 106 0 l 106 347 l 18 926 l 125 926 l 159 583 l 201 926 z "},"Z":{"ha":274,"x_min":14,"x_max":260,"o":"m 33 831 l 33 926 l 260 926 l 132 99 l 233 99 l 233 0 l 14 0 l 142 831 l 33 831 z "},"[":{"ha":247,"x_min":28,"x_max":219,"o":"m 28 926 l 219 926 l 219 838 l 131 838 l 131 -147 l 219 -147 l 219 -235 l 28 -235 l 28 926 z "},"\\":{"ha":265,"x_min":-39,"x_max":270,"o":"m -39 928 l 60 928 l 270 -1 l 174 -1 l -39 928 z "},"]":{"ha":247,"x_min":28,"x_max":219,"o":"m 28 838 l 28 926 l 219 926 l 219 -235 l 28 -235 l 28 -147 l 116 -147 l 116 838 l 28 838 z "},"^":{"ha":437,"x_min":28,"x_max":409,"o":"m 218 848 l 87 527 l 28 527 l 188 926 l 249 926 l 409 527 l 350 527 l 218 848 z "},"_":{"ha":420,"x_min":0,"x_max":420,"o":"m 0 -83 l 420 -83 l 420 -163 l 0 -163 l 0 -83 z "},"`":{"ha":267,"x_min":20,"x_max":195,"o":"m 119 749 l 20 946 l 119 946 l 195 749 l 119 749 z "},"a":{"ha":264,"x_min":23,"x_max":236,"o":"m 113 440 l 23 440 l 23 542 q 39 610 23 585 q 132 657 69 657 q 227 597 203 657 q 236 525 236 574 l 236 0 l 147 0 l 146 18 q 98 -4 123 -4 q 24 79 24 -4 l 24 287 q 93 369 24 369 q 142 355 119 369 l 140 538 l 140 539 q 127 558 140 558 q 113 537 113 558 l 113 440 m 115 262 l 115 112 q 129 90 115 90 q 143 113 143 90 l 143 256 q 128 281 143 281 q 115 262 115 281 z "},"b":{"ha":271,"x_min":28,"x_max":243,"o":"m 28 0 l 28 926 l 120 926 l 120 631 q 174 653 149 653 q 225 630 207 653 q 243 566 243 608 l 243 75 q 180 -4 243 -4 q 121 22 153 -4 l 121 0 l 28 0 m 121 538 l 121 114 q 135 87 121 87 q 149 110 149 87 l 149 538 q 136 560 149 560 q 121 538 121 560 z "},"c":{"ha":254,"x_min":28,"x_max":236,"o":"m 236 443 l 144 443 l 144 544 q 130 568 144 568 q 116 546 116 568 l 116 111 q 130 87 116 87 q 144 112 144 87 l 144 201 l 236 201 l 236 115 q 222 50 236 76 q 185 11 210 25 q 129 -4 159 -4 q 55 22 82 -4 q 28 95 28 49 l 28 551 q 39 604 28 582 q 137 657 68 657 q 236 545 236 657 l 236 443 z "},"d":{"ha":275,"x_min":28,"x_max":248,"o":"m 153 928 l 248 928 l 248 0 l 155 0 l 153 20 q 98 -2 125 -2 q 28 104 28 -2 l 28 555 q 100 655 28 655 q 153 633 123 655 l 153 928 m 126 526 l 126 116 q 140 89 126 89 q 156 113 156 89 l 156 525 q 140 553 156 553 q 126 526 126 553 z "},"e":{"ha":267,"x_min":28,"x_max":244,"o":"m 242 539 l 242 286 l 119 286 l 119 117 q 132 94 119 94 q 147 118 147 94 l 147 202 l 244 202 l 244 130 q 224 38 244 67 q 136 -4 195 -4 q 74 12 102 -4 q 35 52 45 27 q 28 100 28 68 l 28 526 q 44 612 28 582 q 136 657 68 657 q 242 539 242 657 m 118 544 l 118 368 l 146 368 l 146 542 q 132 565 146 565 q 118 544 118 565 z "},"f":{"ha":178,"x_min":12,"x_max":168,"o":"m 135 652 l 168 652 l 168 566 l 135 566 l 135 0 l 47 0 l 44 566 l 12 566 l 12 652 l 42 652 l 42 821 q 54 882 42 859 q 90 918 66 903 q 138 932 114 932 q 167 923 155 932 l 167 834 q 157 837 161 837 q 135 806 135 837 l 135 652 z "},"g":{"ha":271,"x_min":28,"x_max":243,"o":"m 150 652 l 243 652 l 243 -84 q 234 -157 243 -125 q 130 -221 214 -221 q 45 -180 68 -221 q 32 -88 32 -157 l 121 -88 q 120 -104 120 -91 l 120 -118 q 134 -134 120 -134 q 147 -112 147 -134 l 148 16 q 96 -3 123 -3 q 46 22 64 -3 q 28 89 28 47 l 28 548 q 95 652 28 652 q 149 631 125 652 l 150 652 m 120 538 l 120 106 q 133 85 120 85 q 148 104 148 85 l 148 539 q 135 563 148 563 q 120 538 120 563 z "},"h":{"ha":276,"x_min":28,"x_max":248,"o":"m 28 926 l 123 926 l 123 643 q 168 656 145 656 q 242 606 225 656 q 248 553 248 590 l 248 0 l 151 0 l 151 537 q 136 564 151 564 q 123 554 127 564 l 123 0 l 28 0 l 28 926 z "},"i":{"ha":149,"x_min":14,"x_max":139,"o":"m 28 652 l 121 652 l 121 0 l 28 0 l 28 652 m 78 846 q 122 827 105 846 q 139 780 139 809 q 121 735 139 753 q 77 718 104 718 q 32 736 51 718 q 14 781 14 754 q 32 827 14 808 q 78 846 50 846 z "},"j":{"ha":153,"x_min":-5,"x_max":144,"o":"m 32 652 l 125 652 l 125 -92 q 33 -208 125 -208 q -5 -205 12 -208 l -5 -124 l 7 -123 q 28 -119 25 -122 q 32 -96 32 -114 l 32 652 m 83 846 q 127 827 111 846 q 144 780 144 809 q 127 735 144 753 q 83 718 109 718 q 37 736 56 718 q 18 781 18 754 q 37 827 18 808 q 83 846 56 846 z "},"k":{"ha":280,"x_min":28,"x_max":262,"o":"m 28 926 l 124 926 l 124 395 l 167 650 l 262 650 l 199 328 l 259 0 l 162 0 l 124 235 l 124 0 l 28 0 l 28 926 z "},"l":{"ha":149,"x_min":28,"x_max":121,"o":"m 28 926 l 121 926 l 121 0 l 28 0 l 28 926 z "},"m":{"ha":397,"x_min":28,"x_max":369,"o":"m 28 0 l 28 652 l 119 652 l 119 632 q 172 656 146 656 q 233 620 206 656 q 303 656 269 656 q 369 561 369 656 l 369 0 l 279 0 l 279 534 q 261 560 279 560 q 244 546 247 560 l 243 0 l 153 0 l 153 531 q 138 558 153 558 q 117 543 121 558 l 117 0 l 28 0 z "},"n":{"ha":271,"x_min":28,"x_max":243,"o":"m 28 0 l 28 652 l 115 652 l 117 625 q 172 652 141 652 q 243 555 243 652 l 243 0 l 150 0 l 150 523 q 146 553 150 546 q 133 561 143 561 q 116 549 120 561 l 116 0 l 28 0 z "},"o":{"ha":269,"x_min":28,"x_max":241,"o":"m 241 543 l 241 120 q 224 37 241 62 q 132 -4 195 -4 q 28 100 28 -4 l 28 549 q 39 606 28 584 q 79 643 52 629 q 140 657 107 657 q 241 543 241 657 m 117 534 l 117 126 q 135 94 117 94 q 153 123 153 94 l 153 534 q 136 563 153 563 q 117 534 117 563 z "},"p":{"ha":272,"x_min":28,"x_max":244,"o":"m 28 -208 l 28 652 l 122 652 l 123 634 q 175 655 146 655 q 226 633 208 655 q 244 571 244 611 l 244 91 q 237 43 244 60 q 209 15 229 26 q 170 3 189 3 q 123 20 149 3 l 123 -208 l 28 -208 m 123 543 l 123 118 q 136 92 123 92 q 150 122 150 92 l 150 541 q 138 564 150 564 q 123 543 123 564 z "},"q":{"ha":272,"x_min":28,"x_max":244,"o":"m 150 652 l 244 652 l 244 -208 l 149 -208 l 149 20 q 102 3 122 3 q 63 15 83 3 q 35 43 43 26 q 28 91 28 60 l 28 571 q 35 616 28 600 q 97 655 54 655 q 149 634 125 655 l 150 652 m 122 541 l 122 122 q 136 92 122 92 q 149 118 148 92 l 149 543 q 134 564 149 564 q 122 541 122 564 z "},"r":{"ha":212,"x_min":28,"x_max":198,"o":"m 28 0 l 28 652 l 117 652 l 119 622 q 173 647 150 647 q 198 640 187 647 l 198 530 q 163 548 180 548 q 128 525 138 548 q 125 487 125 517 l 125 0 l 28 0 z "},"s":{"ha":271,"x_min":23,"x_max":248,"o":"m 248 441 l 152 441 l 152 532 q 149 557 151 551 q 137 562 146 562 q 119 534 119 562 l 119 409 q 124 377 119 384 q 153 369 129 371 l 183 367 q 234 349 222 363 q 247 289 247 333 l 247 123 q 224 33 247 62 q 132 -4 194 -4 q 32 45 56 -4 q 23 123 23 62 l 23 197 l 119 197 l 119 127 q 135 92 119 92 q 152 125 152 92 l 152 245 q 148 272 152 266 q 128 279 144 278 l 94 280 q 24 363 24 283 l 24 546 q 140 657 24 657 q 223 625 198 657 q 248 513 248 591 l 248 441 z "},"t":{"ha":189,"x_min":14,"x_max":174,"o":"m 51 842 l 141 842 l 141 652 l 174 652 l 174 562 l 141 562 l 141 0 l 51 0 l 51 562 l 14 562 l 14 652 l 51 652 l 51 842 z "},"u":{"ha":273,"x_min":28,"x_max":245,"o":"m 155 652 l 245 652 l 245 132 q 230 42 245 67 q 137 -4 203 -4 q 28 116 28 -4 l 28 652 l 119 652 l 119 126 q 138 92 119 92 q 155 125 155 92 l 155 652 z "},"v":{"ha":264,"x_min":14,"x_max":250,"o":"m 156 652 l 250 652 l 187 0 l 54 0 l 14 652 l 106 652 l 127 136 l 156 652 z "},"w":{"ha":363,"x_min":14,"x_max":349,"o":"m 257 652 l 349 652 l 295 0 l 198 0 l 179 310 l 157 0 l 63 0 l 14 652 l 101 652 l 124 251 l 144 652 l 217 652 l 245 253 l 257 652 z "},"x":{"ha":277,"x_min":14,"x_max":263,"o":"m 166 652 l 257 652 l 201 321 l 263 0 l 176 0 l 140 259 l 116 0 l 27 0 l 82 320 l 14 652 l 106 652 l 140 400 l 166 652 z "},"y":{"ha":238,"x_min":14,"x_max":224,"o":"m 134 652 l 224 652 l 224 -69 q 200 -177 224 -144 q 121 -209 176 -209 q 26 -173 52 -209 q 16 -120 16 -159 l 16 -81 l 103 -81 l 103 -99 q 117 -123 103 -123 q 132 -94 132 -123 l 132 16 q 79 -3 102 -3 q 32 17 50 -3 q 14 70 14 37 l 14 652 l 102 652 l 102 114 q 118 87 102 87 q 134 115 134 87 l 134 652 z "},"z":{"ha":241,"x_min":18,"x_max":222,"o":"m 22 566 l 22 653 l 222 653 l 118 85 l 212 84 l 212 0 l 18 0 l 120 566 l 22 566 z "},"{":{"ha":278,"x_min":28,"x_max":250,"o":"m 250 -178 l 250 -256 q 136 -215 174 -254 q 89 -52 89 -168 l 89 176 q 75 267 89 236 q 28 307 62 296 l 28 384 q 76 425 63 395 q 89 515 89 452 l 89 757 q 127 899 89 854 q 250 948 166 945 l 250 869 q 190 840 203 864 q 176 735 176 814 l 176 508 q 159 406 176 441 q 100 345 143 372 q 159 283 141 320 q 176 180 176 246 l 176 -39 q 180 -121 176 -99 q 198 -158 184 -142 q 250 -178 212 -174 z "},"|":{"ha":694,"x_min":305,"x_max":390,"o":"m 390 926 l 390 -231 l 305 -231 l 305 926 l 390 926 z "},"}":{"ha":278,"x_min":28,"x_max":250,"o":"m 28 -256 l 28 -178 q 89 -147 75 -172 q 102 -39 102 -121 l 102 180 q 119 283 102 247 q 178 345 136 319 q 119 406 134 372 q 102 508 102 441 l 102 735 q 98 812 102 792 q 81 849 94 832 q 28 869 65 865 l 28 948 q 151 899 112 945 q 189 757 189 854 l 189 515 q 203 425 189 454 q 250 384 216 395 l 250 307 q 203 267 216 296 q 189 176 189 236 l 189 -52 q 151 -205 189 -157 q 28 -256 113 -254 z "},"~":{"ha":465,"x_min":28,"x_max":437,"o":"m 406 969 l 437 920 q 382 797 408 834 q 326 759 356 759 q 292 769 309 759 q 192 839 274 780 q 140 863 158 863 q 101 835 119 863 q 59 739 83 807 l 28 790 q 84 912 58 875 q 140 948 110 948 q 245 890 168 948 q 323 843 309 843 q 406 969 365 843 z "}," ":{"ha":102,"x_min":0,"x_max":0,"o":""},"¡":{"ha":179,"x_min":28,"x_max":152,"o":"m 134 -7 l 37 -7 l 37 748 l 134 748 l 134 -7 m 89 928 q 134 910 114 928 q 152 865 152 891 q 134 821 152 839 q 91 803 117 803 q 46 822 64 803 q 28 868 28 840 q 45 911 28 893 q 89 928 63 928 z "},"¢":{"ha":288,"x_min":28,"x_max":260,"o":"m 98 928 l 185 928 l 185 787 q 236 742 217 776 q 255 664 255 709 l 255 562 l 155 562 l 155 674 q 142 696 155 696 q 127 675 127 696 l 127 253 q 142 231 127 231 q 157 257 157 231 l 157 365 l 260 365 l 260 264 q 245 191 260 214 q 185 142 230 167 l 185 0 l 98 0 l 98 147 q 43 197 59 168 q 28 277 28 227 l 28 667 q 42 736 28 712 q 98 787 57 762 l 98 928 z "},"£":{"ha":361,"x_min":28,"x_max":334,"o":"m 184 500 l 272 500 l 272 431 l 200 432 q 218 293 218 346 q 165 73 218 194 l 195 64 q 220 58 211 58 q 260 82 250 58 q 264 130 264 91 l 264 293 l 334 293 l 334 132 q 317 37 334 61 q 223 -11 288 -11 q 149 3 191 -11 q 121 7 136 7 q 54 -12 81 7 l 28 53 q 81 76 51 69 q 127 182 109 117 q 145 304 145 248 q 125 431 145 368 l 46 431 l 46 500 l 112 500 q 96 657 96 580 l 96 802 q 116 898 96 868 q 212 946 150 946 q 309 892 280 946 q 321 820 321 869 l 321 637 l 248 637 l 248 822 q 240 870 248 858 q 210 883 233 883 q 179 869 188 883 q 170 818 170 854 l 170 662 q 172 585 170 606 q 184 500 174 563 z "},"¤":{"ha":529,"x_min":28,"x_max":501,"o":"m 65 112 l 28 173 l 108 305 q 67 501 67 396 q 109 697 67 606 l 28 831 l 65 893 l 146 759 q 265 828 201 828 q 382 762 326 828 l 462 893 l 498 831 l 420 700 q 463 500 463 608 q 422 306 463 399 l 501 174 l 465 112 l 385 243 q 265 172 330 172 q 144 243 203 172 l 65 112 m 265 730 q 184 663 218 730 q 151 500 151 597 q 187 332 151 406 q 264 271 218 271 q 342 338 310 271 q 375 500 375 407 q 360 614 375 562 q 321 697 345 668 q 265 730 294 730 z "},"¥":{"ha":323,"x_min":18,"x_max":304,"o":"m 304 926 l 223 419 l 286 419 l 286 349 l 212 349 l 211 341 l 211 293 l 286 293 l 286 222 l 211 222 l 211 0 l 106 0 l 106 222 l 37 222 l 37 293 l 106 293 l 106 347 l 105 349 l 37 349 l 37 419 l 95 419 l 18 926 l 125 926 l 159 583 l 201 926 l 304 926 z "},"¦":{"ha":694,"x_min":305,"x_max":390,"o":"m 305 467 l 305 926 l 390 926 l 390 467 l 305 467 m 305 -231 l 305 213 l 390 213 l 390 -231 l 305 -231 z "},"§":{"ha":438,"x_min":28,"x_max":410,"o":"m 368 711 l 298 711 q 286 800 298 764 q 218 863 265 863 q 171 833 189 863 q 153 755 153 804 q 168 686 153 711 q 229 616 182 659 q 376 457 340 514 q 410 321 410 400 q 387 210 410 258 q 325 137 363 159 q 370 -8 370 72 q 328 -157 370 -100 q 220 -214 286 -214 q 105 -148 146 -214 q 64 37 64 -82 l 139 37 q 220 -125 142 -125 q 272 -94 252 -125 q 292 -10 292 -62 q 268 79 292 43 q 144 207 243 114 q 53 317 77 270 q 28 436 28 366 q 111 621 28 571 q 73 755 73 680 q 113 895 73 840 q 216 949 153 949 q 327 886 286 949 q 368 711 367 821 m 147 569 q 104 446 104 530 q 126 364 104 401 q 221 256 148 328 q 258 218 245 232 q 288 188 276 197 q 323 235 310 203 q 336 304 336 267 q 308 400 336 357 q 182 536 279 443 q 147 569 157 561 z "},"¨":{"ha":334,"x_min":46,"x_max":288,"o":"m 238 849 q 273 834 258 849 q 288 799 288 819 q 273 763 288 778 q 237 748 258 748 q 202 763 216 748 q 187 799 187 778 q 202 834 187 820 q 238 849 217 849 m 96 846 q 131 831 117 846 q 145 796 145 817 q 131 761 145 775 q 96 746 116 746 q 60 761 75 746 q 46 796 46 775 q 61 831 46 817 q 96 846 75 846 z "},"©":{"ha":1019,"x_min":28,"x_max":991,"o":"m 515 945 q 762 873 644 945 q 939 682 878 802 q 991 463 991 578 q 920 212 991 326 q 728 34 849 96 q 509 -18 625 -18 q 258 53 374 -18 q 80 245 142 123 q 28 462 28 348 q 98 715 28 598 q 291 892 169 829 q 515 945 394 945 m 514 881 q 216 760 338 881 q 94 462 94 637 q 156 243 94 344 q 321 90 217 143 q 509 45 410 45 q 800 167 680 45 q 922 463 922 290 q 861 682 922 581 q 696 836 802 781 q 514 881 610 881 m 622 555 l 552 555 l 552 625 q 544 679 552 665 q 513 694 536 694 q 481 679 490 694 q 473 624 473 663 l 473 311 q 479 267 473 277 q 512 248 490 248 q 544 263 535 248 q 553 315 553 277 l 553 388 l 622 388 l 622 321 q 603 227 622 254 q 513 182 572 182 q 453 198 480 182 q 414 241 427 214 q 401 328 401 267 l 401 621 q 514 758 401 758 q 622 621 622 758 l 622 555 z "},"ª":{"ha":191,"x_min":9,"x_max":182,"o":"m 9 444 l 182 444 l 182 390 l 9 390 l 9 444 m 83 803 l 26 803 l 26 867 q 44 920 26 901 q 95 939 63 939 q 161 857 161 939 l 161 526 l 105 526 l 104 537 q 74 523 90 523 q 27 576 27 523 l 27 707 q 71 758 27 758 q 102 749 89 758 l 100 865 l 100 867 q 92 877 102 877 q 83 864 83 877 l 83 803 m 84 690 l 84 596 q 94 582 84 582 q 102 597 102 582 l 102 687 q 93 703 102 703 q 84 690 84 703 z "},"«":{"ha":532,"x_min":28,"x_max":505,"o":"m 505 212 l 505 113 l 279 304 l 279 379 l 505 570 l 505 471 l 347 342 l 505 212 m 253 214 l 253 115 l 28 307 l 28 380 l 253 572 l 253 473 l 96 344 l 253 214 z "},"¬":{"ha":456,"x_min":28,"x_max":428,"o":"m 428 0 l 380 0 l 380 293 l 28 293 l 28 372 l 428 372 l 428 0 z "},"­":{"ha":198,"x_min":28,"x_max":170,"o":"m 28 385 l 28 481 l 170 481 l 170 385 l 28 385 z "},"®":{"ha":1019,"x_min":28,"x_max":991,"o":"m 515 945 q 762 873 644 945 q 939 682 878 802 q 991 463 991 578 q 920 212 991 326 q 728 34 849 96 q 509 -18 625 -18 q 258 53 374 -18 q 80 245 142 123 q 28 462 28 348 q 98 715 28 598 q 291 892 169 829 q 515 945 394 945 m 514 881 q 216 760 338 881 q 94 462 94 637 q 156 243 94 344 q 321 90 217 143 q 509 45 410 45 q 800 167 680 45 q 922 463 922 290 q 861 682 922 581 q 696 836 802 781 q 514 881 610 881 m 401 177 l 401 753 l 499 753 q 592 720 564 753 q 621 612 621 687 l 621 577 q 606 506 621 528 q 557 478 592 484 q 608 439 595 465 q 621 346 621 413 l 621 264 q 623 207 621 220 q 635 177 626 193 l 570 177 q 551 248 551 197 l 551 359 q 538 424 551 406 q 486 441 524 441 q 475 440 479 441 l 475 177 l 401 177 m 475 688 l 475 509 q 490 508 486 508 q 539 524 525 508 q 553 581 553 541 l 553 622 q 540 674 553 660 q 493 689 527 689 q 475 688 488 689 z "},"¯":{"ha":547,"x_min":149,"x_max":399,"o":"m 149 786 l 149 857 l 399 857 l 399 786 l 149 786 z "},"°":{"ha":269,"x_min":28,"x_max":241,"o":"m 241 831 l 241 645 q 224 562 241 587 q 132 520 195 520 q 28 624 28 520 l 28 837 q 39 894 28 872 q 79 931 52 917 q 140 945 107 945 q 241 831 241 945 m 117 821 l 117 650 q 135 618 117 618 q 153 648 153 618 l 153 823 q 136 851 153 851 q 117 821 117 851 z "},"±":{"ha":361,"x_min":28,"x_max":334,"o":"m 28 90 l 28 176 l 334 176 l 334 90 l 28 90 m 28 481 l 132 481 l 132 635 l 225 635 l 225 481 l 334 481 l 334 385 l 225 385 l 225 231 l 132 231 l 132 385 l 28 385 l 28 481 z "},"²":{"ha":182,"x_min":23,"x_max":161,"o":"m 83 759 l 24 759 l 24 854 q 42 911 23 890 q 93 932 60 932 q 143 913 125 932 q 161 861 161 895 l 161 749 q 146 671 161 701 l 98 574 q 82 511 82 542 l 82 429 l 160 429 l 160 370 l 23 370 l 23 499 l 23 502 q 50 603 23 557 l 89 680 q 104 746 104 710 l 104 859 q 94 872 104 872 q 83 858 83 872 l 83 759 z "},"³":{"ha":191,"x_min":23,"x_max":164,"o":"m 82 755 l 23 755 l 23 857 q 95 932 23 932 q 161 854 161 932 l 163 706 q 136 647 164 665 q 163 587 163 632 l 164 435 q 157 398 164 412 q 93 366 140 366 q 25 435 25 366 l 24 541 l 85 541 l 85 443 l 85 440 q 95 424 85 424 q 105 440 105 424 l 104 602 q 101 619 104 615 q 83 623 97 623 l 58 623 l 58 676 l 81 676 q 100 681 96 676 q 104 698 104 685 l 104 856 q 93 874 104 874 q 82 855 82 874 l 82 755 z "},"´":{"ha":267,"x_min":83,"x_max":258,"o":"m 159 946 l 258 946 l 158 749 l 83 749 l 159 946 z "},"µ":{"ha":394,"x_min":28,"x_max":366,"o":"m 90 -233 l 28 -233 l 28 671 l 90 671 l 90 293 q 112 141 90 191 q 193 69 143 69 q 273 135 242 69 q 304 305 304 200 l 304 671 l 366 671 l 366 0 l 304 0 l 304 114 q 271 31 288 58 q 194 -19 241 -19 q 135 5 159 -19 q 90 84 111 29 l 90 -233 z "},"¶":{"ha":467,"x_min":28,"x_max":439,"o":"m 271 -134 l 192 -134 l 192 439 l 180 439 q 94 476 133 439 q 45 560 63 505 q 28 680 28 614 q 46 803 28 747 q 96 889 64 859 q 212 928 138 928 l 439 928 l 439 840 l 399 840 l 399 -134 l 321 -134 l 321 840 l 271 840 l 271 -134 z "},"·":{"ha":102,"x_min":-21,"x_max":123,"o":"m -21 449 l 123 449 l 123 310 l -21 310 l -21 449 z "},"¸":{"ha":346,"x_min":93,"x_max":254,"o":"m 152 -55 l 254 -55 l 161 -198 l 93 -198 l 152 -55 z "},"¹":{"ha":121,"x_min":9,"x_max":94,"o":"m 9 927 l 94 927 l 94 370 l 31 370 l 31 867 l 9 867 l 9 927 z "},"º":{"ha":191,"x_min":9,"x_max":182,"o":"m 9 444 l 182 444 l 182 390 l 9 390 l 9 444 m 161 868 l 161 602 q 150 549 161 564 q 92 523 132 523 q 26 589 26 523 l 26 871 q 45 922 26 904 q 97 940 64 940 q 161 868 161 940 m 82 862 l 82 606 q 94 585 82 585 q 105 604 105 585 l 105 863 q 94 880 105 880 q 82 862 82 880 z "},"»":{"ha":532,"x_min":28,"x_max":505,"o":"m 28 473 l 28 572 l 253 380 l 253 307 l 28 115 l 28 214 l 185 344 l 28 473 m 279 471 l 279 570 l 505 379 l 505 304 l 279 113 l 279 212 l 437 342 l 279 471 z "},"¼":{"ha":379,"x_min":14,"x_max":370,"o":"m 40 0 l 249 917 l 293 917 l 82 0 l 40 0 m 14 927 l 98 927 l 98 370 l 35 370 l 35 867 l 14 867 l 14 927 m 252 555 l 343 555 l 343 201 l 370 201 l 370 138 l 343 138 l 343 0 l 281 0 l 281 138 l 213 138 l 185 180 l 252 555 m 281 201 l 281 446 l 242 201 l 281 201 z "},"½":{"ha":399,"x_min":14,"x_max":380,"o":"m 43 0 l 252 917 l 296 917 l 85 0 l 43 0 m 14 927 l 98 927 l 98 370 l 35 370 l 35 867 l 14 867 l 14 927 m 302 389 l 243 389 l 242 484 q 261 541 242 520 q 312 562 279 562 q 362 543 345 562 q 380 490 380 524 l 380 378 q 366 301 380 330 l 317 204 q 301 141 301 172 l 301 59 l 379 59 l 379 0 l 242 0 l 242 129 l 242 132 q 268 233 242 186 l 308 310 q 323 376 323 340 l 323 488 q 313 502 323 502 q 302 488 302 502 l 302 389 z "},"¾":{"ha":458,"x_min":28,"x_max":439,"o":"m 119 0 l 328 917 l 372 917 l 161 0 l 119 0 m 322 555 l 413 555 l 413 201 l 439 201 l 439 138 l 413 138 l 413 0 l 351 0 l 351 138 l 283 138 l 255 180 l 322 555 m 351 201 l 351 446 l 312 201 l 351 201 m 87 755 l 28 755 l 28 857 q 100 932 28 932 q 166 854 166 932 l 168 706 q 141 647 168 665 q 168 587 168 632 l 169 435 q 161 398 169 412 q 98 366 144 366 q 30 435 30 366 l 29 541 l 90 541 l 90 443 l 90 440 q 100 424 90 424 q 110 440 110 424 l 109 602 q 105 619 109 615 q 87 623 102 623 l 63 623 l 63 676 l 86 676 q 104 681 100 676 q 109 698 109 685 l 109 856 q 98 874 109 874 q 87 855 87 874 l 87 755 z "},"¿":{"ha":287,"x_min":28,"x_max":260,"o":"m 161 282 l 260 282 l 260 136 q 146 -6 260 -6 q 62 27 93 -6 q 31 115 31 60 l 29 267 q 52 416 28 360 l 73 467 q 92 570 92 517 l 92 758 l 189 758 l 189 530 q 171 444 189 486 l 152 400 q 150 397 151 399 q 129 277 129 355 l 129 116 q 144 90 129 90 q 161 119 161 90 l 161 282 m 136 937 q 182 918 163 937 q 201 873 201 900 q 183 829 201 847 q 138 810 165 810 q 94 829 112 810 q 77 875 77 847 q 94 919 77 901 q 136 937 111 937 z "},"À":{"ha":330,"x_min":18,"x_max":311,"o":"m 79 926 l 229 926 l 311 0 l 205 0 l 192 179 l 132 179 l 122 0 l 18 0 l 79 926 m 186 277 l 157 710 l 136 277 l 186 277 m 138 1019 l 39 1215 l 138 1215 l 214 1019 l 138 1019 z "},"Á":{"ha":330,"x_min":18,"x_max":311,"o":"m 79 926 l 229 926 l 311 0 l 205 0 l 192 179 l 132 179 l 122 0 l 18 0 l 79 926 m 186 277 l 157 710 l 136 277 l 186 277 m 168 1215 l 267 1215 l 168 1019 l 92 1019 l 168 1215 z "},"Â":{"ha":330,"x_min":18,"x_max":311,"o":"m 79 926 l 229 926 l 311 0 l 205 0 l 192 179 l 132 179 l 122 0 l 18 0 l 79 926 m 186 277 l 157 710 l 136 277 l 186 277 m 127 1213 l 194 1213 l 290 1019 l 212 1019 l 159 1134 l 105 1019 l 25 1019 l 127 1213 z "},"Ã":{"ha":330,"x_min":13,"x_max":311,"o":"m 80 926 l 229 926 l 311 0 l 205 0 l 193 179 l 132 179 l 123 0 l 18 0 l 80 926 m 186 277 l 158 710 l 136 277 l 186 277 m 71 1040 l 13 1040 q 18 1076 15 1060 q 48 1130 26 1110 q 98 1150 69 1150 q 167 1122 129 1150 q 209 1103 195 1103 q 242 1145 233 1103 l 300 1145 q 294 1110 298 1126 q 264 1056 286 1076 q 214 1036 243 1036 q 155 1058 186 1036 q 103 1083 119 1083 q 71 1040 80 1083 z "},"Ä":{"ha":330,"x_min":18,"x_max":311,"o":"m 79 926 l 229 926 l 311 0 l 205 0 l 192 179 l 132 179 l 122 0 l 18 0 l 79 926 m 186 277 l 157 710 l 136 277 l 186 277 m 227 1116 q 262 1101 248 1116 q 277 1066 277 1086 q 262 1030 277 1045 q 227 1015 248 1015 q 191 1030 205 1015 q 176 1066 176 1045 q 191 1102 176 1087 q 227 1116 206 1116 m 85 1113 q 120 1098 106 1113 q 134 1063 134 1084 q 120 1028 134 1042 q 85 1013 105 1013 q 50 1028 64 1013 q 35 1063 35 1042 q 50 1099 35 1084 q 85 1113 64 1113 z "},"Å":{"ha":330,"x_min":18,"x_max":311,"o":"m 79 926 l 229 926 l 311 0 l 205 0 l 192 179 l 132 179 l 122 0 l 18 0 l 79 926 m 186 277 l 157 710 l 136 277 l 186 277 m 155 1158 q 123 1144 136 1158 q 110 1113 110 1131 q 123 1080 110 1093 q 155 1067 136 1067 q 187 1080 174 1067 q 200 1112 200 1093 q 187 1144 200 1131 q 155 1158 174 1158 m 157 1213 q 227 1183 197 1213 q 256 1112 256 1154 q 223 1037 256 1066 q 156 1011 194 1011 q 85 1041 115 1011 q 56 1113 56 1070 q 85 1184 56 1154 q 157 1213 115 1213 z "},"Æ":{"ha":386,"x_min":0,"x_max":367,"o":"m 184 373 l 139 373 l 104 0 l 0 0 l 102 926 l 367 926 l 367 834 l 287 834 l 287 466 l 367 466 l 367 373 l 287 373 l 287 96 l 367 96 l 367 0 l 184 0 l 184 373 m 184 822 l 149 466 l 184 466 l 184 822 z "},"Ç":{"ha":273,"x_min":28,"x_max":255,"o":"m 255 630 l 159 630 l 159 810 q 156 833 159 828 q 142 839 153 839 q 125 814 125 839 l 125 122 q 129 97 125 103 q 142 92 132 92 q 159 115 159 92 l 159 299 l 254 299 l 254 113 q 235 39 254 66 q 139 -7 202 -7 q 58 21 88 -7 q 28 97 28 49 l 28 803 q 140 936 28 936 q 223 909 192 936 q 255 838 255 882 l 255 630 m 92 -55 l 193 -55 l 100 -198 l 33 -198 l 92 -55 z "},"È":{"ha":229,"x_min":28,"x_max":210,"o":"m 28 0 l 28 926 l 210 926 l 210 834 l 130 834 l 130 513 l 210 513 l 210 420 l 130 420 l 130 96 l 210 96 l 210 0 l 28 0 m 127 1019 l 28 1215 l 127 1215 l 203 1019 l 127 1019 z "},"É":{"ha":229,"x_min":28,"x_max":231,"o":"m 28 0 l 28 926 l 210 926 l 210 834 l 130 834 l 130 513 l 210 513 l 210 420 l 130 420 l 130 96 l 210 96 l 210 0 l 28 0 m 132 1215 l 231 1215 l 131 1019 l 56 1019 l 132 1215 z "},"Ê":{"ha":229,"x_min":-9,"x_max":256,"o":"m 28 0 l 28 926 l 210 926 l 210 834 l 130 834 l 130 513 l 210 513 l 210 420 l 130 420 l 130 96 l 210 96 l 210 0 l 28 0 m 94 1213 l 160 1213 l 256 1019 l 178 1019 l 125 1134 l 71 1019 l -9 1019 l 94 1213 z "},"Ë":{"ha":229,"x_min":-2,"x_max":239,"o":"m 28 0 l 28 926 l 210 926 l 210 834 l 130 834 l 130 513 l 210 513 l 210 420 l 130 420 l 130 96 l 210 96 l 210 0 l 28 0 m 190 1116 q 225 1101 210 1116 q 239 1066 239 1086 q 225 1030 239 1045 q 189 1015 210 1015 q 154 1030 168 1015 q 139 1066 139 1045 q 154 1102 139 1087 q 190 1116 169 1116 m 48 1113 q 83 1098 68 1113 q 97 1063 97 1084 q 82 1028 97 1042 q 47 1013 68 1013 q 12 1028 26 1013 q -2 1063 -2 1042 q 13 1099 -2 1084 q 48 1113 27 1113 z "},"Ì":{"ha":157,"x_min":-35,"x_max":140,"o":"m 28 926 l 130 926 l 130 0 l 28 0 l 28 926 m 64 1019 l -35 1215 l 64 1215 l 140 1019 l 64 1019 z "},"Í":{"ha":157,"x_min":28,"x_max":205,"o":"m 28 926 l 130 926 l 130 0 l 28 0 l 28 926 m 106 1215 l 205 1215 l 105 1019 l 30 1019 l 106 1215 z "},"Î":{"ha":157,"x_min":-50,"x_max":216,"o":"m 28 926 l 130 926 l 130 0 l 28 0 l 28 926 m 53 1213 l 119 1213 l 216 1019 l 138 1019 l 85 1134 l 31 1019 l -50 1019 l 53 1213 z "},"Ï":{"ha":157,"x_min":-36,"x_max":194,"o":"m 28 926 l 130 926 l 130 0 l 28 0 l 28 926 m 144 1116 q 179 1101 165 1116 q 194 1066 194 1086 q 179 1030 194 1045 q 144 1015 165 1015 q 108 1030 123 1015 q 94 1066 94 1045 q 109 1102 94 1087 q 144 1116 123 1116 m 14 1113 q 49 1098 35 1113 q 63 1063 63 1084 q 48 1028 63 1042 q 14 1013 34 1013 q -22 1028 -7 1013 q -36 1063 -36 1042 q -21 1099 -36 1084 q 14 1113 -7 1113 z "},"Ð":{"ha":293,"x_min":5,"x_max":265,"o":"m 38 0 l 38 431 l 5 431 l 5 501 l 38 501 l 37 926 l 156 926 q 265 829 265 926 l 265 103 q 161 0 265 0 l 38 0 m 158 431 l 138 431 l 138 97 l 148 97 q 170 130 170 97 l 170 800 q 166 827 170 820 q 148 833 161 833 l 138 833 l 138 501 l 158 501 l 158 431 z "},"Ñ":{"ha":317,"x_min":24,"x_max":311,"o":"m 28 0 l 28 926 l 134 926 l 200 392 l 200 926 l 290 926 l 290 0 l 179 0 l 121 463 l 123 0 l 28 0 m 82 1040 l 24 1040 q 30 1076 26 1060 q 59 1130 38 1110 q 109 1150 81 1150 q 178 1122 140 1150 q 220 1103 206 1103 q 254 1145 244 1103 l 311 1145 q 306 1110 309 1126 q 276 1056 298 1076 q 225 1036 254 1036 q 166 1058 198 1036 q 115 1083 131 1083 q 82 1040 91 1083 z "},"Ò":{"ha":285,"x_min":28,"x_max":257,"o":"m 257 808 l 257 117 q 239 37 257 62 q 141 -7 207 -7 q 55 25 83 -7 q 28 127 28 58 l 28 781 q 45 882 28 850 q 144 936 77 936 q 229 903 200 936 q 257 808 257 871 m 125 805 l 125 118 q 144 87 125 87 q 163 120 163 87 l 163 804 q 159 832 163 825 q 144 839 155 839 q 129 832 132 839 q 125 805 125 825 m 140 1019 l 40 1215 l 139 1215 l 215 1019 l 140 1019 z "},"Ó":{"ha":285,"x_min":28,"x_max":277,"o":"m 257 808 l 257 117 q 239 37 257 62 q 141 -7 207 -7 q 55 25 83 -7 q 28 127 28 58 l 28 781 q 45 882 28 850 q 144 936 77 936 q 229 903 200 936 q 257 808 257 871 m 125 805 l 125 118 q 144 87 125 87 q 163 120 163 87 l 163 804 q 159 832 163 825 q 144 839 155 839 q 129 832 132 839 q 125 805 125 825 m 178 1215 l 277 1215 l 178 1019 l 102 1019 l 178 1215 z "},"Ô":{"ha":285,"x_min":14,"x_max":279,"o":"m 257 808 l 257 117 q 239 37 257 62 q 141 -7 207 -7 q 55 25 83 -7 q 28 127 28 58 l 28 781 q 45 882 28 850 q 144 936 76 936 q 229 903 200 936 q 257 808 257 871 m 125 805 l 125 118 q 144 87 125 87 q 163 120 163 87 l 163 804 q 159 832 163 825 q 144 839 155 839 q 129 832 132 839 q 125 805 125 825 m 117 1213 l 183 1213 l 279 1019 l 201 1019 l 149 1134 l 94 1019 l 14 1019 l 117 1213 z "},"Õ":{"ha":285,"x_min":5,"x_max":292,"o":"m 257 808 l 257 117 q 239 37 257 62 q 141 -7 207 -7 q 55 25 83 -7 q 28 127 28 58 l 28 781 q 45 882 28 850 q 144 936 77 936 q 229 903 200 936 q 257 808 257 871 m 125 805 l 125 118 q 144 87 125 87 q 163 120 163 87 l 163 804 q 159 832 163 825 q 144 839 155 839 q 129 832 132 839 q 125 805 125 825 m 62 1040 l 5 1040 q 10 1076 7 1060 q 40 1130 18 1110 q 90 1150 61 1150 q 159 1122 121 1150 q 201 1103 186 1103 q 234 1145 225 1103 l 292 1145 q 286 1110 290 1126 q 256 1056 278 1076 q 205 1036 235 1036 q 146 1058 178 1036 q 95 1083 111 1083 q 62 1040 72 1083 z "},"Ö":{"ha":285,"x_min":22,"x_max":263,"o":"m 257 808 l 257 117 q 239 37 257 62 q 141 -7 207 -7 q 55 25 83 -7 q 28 127 28 58 l 28 781 q 45 882 28 850 q 144 936 77 936 q 229 903 200 936 q 257 808 257 871 m 125 805 l 125 118 q 144 87 125 87 q 163 120 163 87 l 163 804 q 159 832 163 825 q 144 839 155 839 q 129 832 132 839 q 125 805 125 825 m 214 1116 q 249 1101 234 1116 q 263 1066 263 1086 q 249 1030 263 1045 q 213 1015 234 1015 q 177 1030 192 1015 q 163 1066 163 1045 q 178 1102 163 1087 q 214 1116 193 1116 m 72 1113 q 106 1098 92 1113 q 121 1063 121 1084 q 106 1028 121 1042 q 71 1013 92 1013 q 36 1028 50 1013 q 22 1063 22 1042 q 36 1099 22 1084 q 72 1113 51 1113 z "},"×":{"ha":361,"x_min":28,"x_max":334,"o":"m 334 519 l 248 433 l 334 347 l 268 281 l 181 368 l 94 281 l 28 347 l 115 433 l 28 519 l 94 585 l 181 498 l 268 585 l 334 519 z "},"Ø":{"ha":285,"x_min":15,"x_max":262,"o":"m 58 21 l 52 -7 l 15 1 l 32 77 q 28 127 28 101 l 28 781 q 45 882 28 850 q 144 936 77 936 q 217 913 186 936 l 224 948 l 262 941 l 247 874 q 257 808 257 846 l 257 117 q 239 37 257 62 q 142 -7 207 -7 q 58 21 90 -7 m 125 496 l 163 669 l 163 804 q 159 832 163 825 q 144 839 155 839 q 129 832 132 839 q 125 805 125 825 l 125 496 m 163 120 l 163 493 l 125 319 l 125 118 q 144 87 125 87 q 163 120 163 87 z "},"Ù":{"ha":288,"x_min":28,"x_max":260,"o":"m 157 926 l 260 926 l 260 121 q 234 31 260 61 q 139 -7 201 -7 q 57 21 85 -7 q 28 102 28 50 l 28 926 l 124 926 l 125 117 q 141 92 125 92 q 157 115 157 92 l 157 926 m 136 1019 l 36 1215 l 135 1215 l 211 1019 l 136 1019 z "},"Ú":{"ha":288,"x_min":28,"x_max":276,"o":"m 157 926 l 260 926 l 260 121 q 234 31 260 61 q 139 -7 201 -7 q 57 21 85 -7 q 28 102 28 50 l 28 926 l 124 926 l 125 117 q 141 92 125 92 q 157 115 157 92 l 157 926 m 177 1215 l 276 1215 l 176 1019 l 101 1019 l 177 1215 z "},"Û":{"ha":288,"x_min":16,"x_max":281,"o":"m 157 926 l 260 926 l 260 121 q 234 31 260 61 q 139 -7 201 -7 q 58 21 90 -7 q 28 89 28 49 l 28 926 l 124 926 l 125 117 q 141 92 125 92 q 157 115 157 92 l 157 926 m 119 1213 l 185 1213 l 281 1019 l 203 1019 l 151 1134 l 96 1019 l 16 1019 l 119 1213 z "},"Ü":{"ha":288,"x_min":23,"x_max":264,"o":"m 157 926 l 260 926 l 260 121 q 234 31 260 61 q 139 -7 201 -7 q 58 21 90 -7 q 28 89 28 49 l 28 926 l 124 926 l 125 117 q 141 92 125 92 q 157 115 157 92 l 157 926 m 215 1116 q 250 1101 235 1116 q 264 1066 264 1086 q 250 1030 264 1045 q 214 1015 235 1015 q 179 1030 193 1015 q 164 1066 164 1045 q 179 1102 164 1087 q 215 1116 194 1116 m 73 1113 q 108 1098 94 1113 q 122 1063 122 1084 q 107 1028 122 1042 q 73 1013 93 1013 q 37 1028 52 1013 q 23 1063 23 1042 q 38 1099 23 1084 q 73 1113 52 1113 z "},"Ý":{"ha":323,"x_min":18,"x_max":304,"o":"m 201 926 l 304 926 l 211 341 l 211 0 l 106 0 l 106 347 l 18 926 l 125 926 l 159 583 l 201 926 m 191 1215 l 290 1215 l 191 1019 l 115 1019 l 191 1215 z "},"Þ":{"ha":274,"x_min":28,"x_max":256,"o":"m 130 926 l 130 747 l 149 747 q 256 657 256 747 l 256 307 q 231 231 256 258 q 162 204 206 204 l 130 204 l 130 0 l 28 0 l 28 926 l 130 926 m 138 654 l 129 654 l 128 298 l 134 298 q 155 303 151 298 q 159 330 159 309 l 159 633 q 138 654 159 656 z "},"ß":{"ha":286,"x_min":29,"x_max":259,"o":"m 237 458 q 255 417 252 433 q 259 361 259 400 l 258 114 q 174 -2 258 -2 q 138 1 157 -2 l 138 84 q 147 83 144 83 q 162 87 159 82 q 165 111 165 92 l 165 361 q 161 417 165 399 q 142 458 157 435 q 164 551 164 486 l 164 804 q 160 832 164 825 q 145 839 157 839 q 130 832 134 839 q 126 805 126 825 l 126 0 l 29 0 l 29 781 q 47 882 29 850 q 146 936 78 936 q 258 808 258 936 l 258 551 q 237 458 258 488 z "},"à":{"ha":264,"x_min":16,"x_max":236,"o":"m 113 440 l 24 440 l 24 542 q 39 610 23 584 q 132 657 70 657 q 227 597 203 657 q 236 525 236 574 l 236 0 l 147 0 l 146 18 q 98 -4 123 -4 q 25 79 25 -4 l 25 287 q 93 369 25 369 q 142 355 120 369 l 140 538 l 140 539 q 127 558 140 558 q 113 537 113 558 l 113 440 m 115 262 l 115 112 q 130 90 115 90 q 143 113 143 90 l 143 256 q 129 281 143 281 q 115 262 115 281 m 115 749 l 16 946 l 115 946 l 191 749 l 115 749 z "},"á":{"ha":264,"x_min":23,"x_max":254,"o":"m 113 440 l 23 440 l 23 542 q 39 610 23 585 q 132 657 69 657 q 227 597 203 657 q 236 525 236 574 l 236 0 l 147 0 l 146 18 q 98 -4 123 -4 q 24 79 24 -4 l 24 287 q 93 369 24 369 q 142 355 119 369 l 140 538 l 140 539 q 127 558 140 558 q 113 537 113 558 l 113 440 m 115 262 l 115 112 q 129 90 115 90 q 143 113 143 90 l 143 256 q 128 281 143 281 q 115 262 115 281 m 155 946 l 254 946 l 154 749 l 79 749 l 155 946 z "},"â":{"ha":264,"x_min":-3,"x_max":262,"o":"m 113 440 l 23 440 l 23 542 q 39 610 22 584 q 132 657 69 657 q 227 597 203 657 q 236 525 236 574 l 236 0 l 147 0 l 146 18 q 98 -4 123 -4 q 24 79 24 -4 l 24 287 q 92 369 24 369 q 142 355 119 369 l 140 538 l 140 539 q 127 558 140 558 q 113 537 113 558 l 113 440 m 115 262 l 115 112 q 129 90 115 90 q 143 113 143 90 l 143 256 q 128 281 143 281 q 115 262 115 281 m 99 944 l 165 944 l 262 750 l 184 750 l 131 865 l 77 750 l -3 750 l 99 944 z "},"ã":{"ha":264,"x_min":-14,"x_max":273,"o":"m 113 440 l 24 440 l 23 542 q 39 610 23 585 q 132 657 70 657 q 227 597 203 657 q 236 525 236 574 l 236 0 l 147 0 l 146 18 q 98 -4 123 -4 q 25 79 25 -4 l 25 287 q 93 369 25 369 q 142 355 120 369 l 140 538 l 140 539 q 127 558 140 558 q 113 537 113 558 l 113 440 m 115 262 l 115 112 q 130 90 115 90 q 143 113 143 90 l 143 256 q 129 281 143 281 q 115 262 115 281 m 44 768 l -14 768 q -8 804 -12 789 q 21 859 0 839 q 71 879 43 879 q 140 851 103 879 q 182 831 168 831 q 216 874 206 831 l 273 874 q 187 764 263 764 q 128 786 160 764 q 77 811 93 811 q 44 768 53 811 z "},"ä":{"ha":264,"x_min":9,"x_max":250,"o":"m 113 440 l 24 440 l 24 542 q 39 610 23 584 q 132 657 70 657 q 227 597 203 657 q 236 525 236 574 l 236 0 l 147 0 l 146 18 q 98 -4 123 -4 q 25 79 25 -4 l 25 287 q 93 369 25 369 q 142 355 120 369 l 140 538 l 140 539 q 127 558 140 558 q 113 537 113 558 l 113 440 m 115 262 l 115 112 q 130 90 115 90 q 143 113 143 90 l 143 256 q 129 281 143 281 q 115 262 115 281 m 201 849 q 236 834 221 849 q 250 799 250 819 q 236 763 250 778 q 200 748 221 748 q 164 763 179 748 q 150 799 150 778 q 165 834 150 820 q 201 849 180 849 m 59 846 q 94 831 79 846 q 108 796 108 817 q 93 761 108 775 q 58 746 79 746 q 23 761 37 746 q 9 796 9 775 q 23 831 9 817 q 59 846 38 846 z "},"å":{"ha":264,"x_min":23,"x_max":236,"o":"m 113 440 l 23 440 l 23 542 q 39 610 23 585 q 132 657 69 657 q 227 597 203 657 q 236 525 236 574 l 236 0 l 147 0 l 146 18 q 98 -4 123 -4 q 24 79 24 -4 l 24 287 q 93 369 24 369 q 142 355 119 369 l 140 538 l 140 539 q 127 558 140 558 q 113 537 113 558 l 113 440 m 115 262 l 115 112 q 129 90 115 90 q 143 113 143 90 l 143 256 q 128 281 143 281 q 115 262 115 281 m 129 888 q 97 875 110 888 q 83 844 83 862 q 97 811 83 824 q 128 798 110 798 q 160 811 147 798 q 174 843 174 824 q 160 875 174 862 q 129 888 147 888 m 131 945 q 201 915 171 945 q 230 844 230 886 q 201 772 230 802 q 130 743 171 743 q 58 772 88 743 q 29 844 29 802 q 59 916 29 886 q 131 945 88 945 z "},"æ":{"ha":385,"x_min":23,"x_max":362,"o":"m 189 642 q 254 657 214 657 q 360 539 360 657 l 360 286 l 237 286 l 237 117 q 250 94 237 94 q 265 118 265 94 l 265 202 l 362 202 l 362 130 q 255 -4 362 -4 q 160 37 193 -4 q 129 4 142 12 q 98 -4 117 -4 q 24 79 24 -4 l 24 288 q 42 350 24 331 q 99 368 59 368 l 145 368 l 145 536 q 130 559 145 559 q 116 537 116 559 l 116 440 l 23 440 l 23 542 q 39 610 23 585 q 132 657 70 657 q 189 642 163 657 m 144 118 l 144 286 l 134 286 q 117 267 117 286 l 117 117 q 131 95 117 95 q 144 118 144 95 m 235 544 l 235 368 l 264 368 l 264 542 q 250 565 264 565 q 235 544 235 565 z "},"ç":{"ha":254,"x_min":28,"x_max":236,"o":"m 236 443 l 144 443 l 144 544 q 130 568 144 568 q 116 546 116 568 l 116 111 q 130 87 116 87 q 144 112 144 87 l 144 201 l 236 201 l 236 115 q 222 50 236 76 q 185 11 210 25 q 129 -4 159 -4 q 55 22 82 -4 q 28 95 28 49 l 28 551 q 39 604 28 582 q 137 657 68 657 q 236 545 236 657 l 236 443 m 90 -55 l 192 -55 l 98 -198 l 31 -198 l 90 -55 z "},"è":{"ha":267,"x_min":28,"x_max":244,"o":"m 242 539 l 242 286 l 119 286 l 119 117 q 132 94 119 94 q 147 118 147 94 l 147 202 l 244 202 l 244 130 q 224 38 244 67 q 136 -4 195 -4 q 74 12 102 -4 q 35 52 45 27 q 28 100 28 68 l 28 526 q 44 612 28 582 q 136 657 68 657 q 242 539 242 657 m 118 544 l 118 368 l 146 368 l 146 542 q 132 565 146 565 q 118 544 118 565 m 139 749 l 39 946 l 138 946 l 214 749 l 139 749 z "},"é":{"ha":267,"x_min":28,"x_max":260,"o":"m 242 539 l 242 286 l 119 286 l 119 117 q 132 94 119 94 q 147 118 147 94 l 147 202 l 244 202 l 244 130 q 224 38 244 67 q 136 -4 195 -4 q 74 12 102 -4 q 35 52 45 27 q 28 100 28 68 l 28 526 q 44 612 28 582 q 136 657 68 657 q 242 539 242 657 m 118 544 l 118 368 l 146 368 l 146 542 q 132 565 146 565 q 118 544 118 565 m 161 946 l 260 946 l 161 749 l 85 749 l 161 946 z "},"ê":{"ha":267,"x_min":3,"x_max":269,"o":"m 242 539 l 242 286 l 119 286 l 119 117 q 132 94 119 94 q 147 118 147 94 l 147 202 l 244 202 l 244 130 q 224 38 244 67 q 136 -4 195 -4 q 74 12 102 -4 q 35 52 45 27 q 28 100 28 68 l 28 526 q 44 612 28 582 q 136 657 68 657 q 242 539 242 657 m 118 544 l 118 368 l 146 368 l 146 542 q 132 565 146 565 q 118 544 118 565 m 106 944 l 172 944 l 269 750 l 191 750 l 138 865 l 83 750 l 3 750 l 106 944 z "},"ë":{"ha":268,"x_min":16,"x_max":257,"o":"m 243 539 l 243 286 l 119 286 l 119 117 q 133 94 119 94 q 145 98 142 94 q 148 118 148 103 l 148 202 l 245 202 l 245 130 q 137 -4 245 -4 q 75 12 103 -4 q 36 52 46 27 q 28 100 28 68 l 28 526 q 45 612 28 582 q 136 657 69 657 q 243 539 243 657 m 119 544 l 119 368 l 146 368 l 146 542 q 132 565 146 565 q 119 544 119 565 m 208 849 q 242 834 228 849 q 257 799 257 819 q 242 763 257 778 q 207 748 228 748 q 171 763 186 748 q 157 799 157 778 q 172 834 157 820 q 208 849 186 849 m 66 846 q 100 831 86 846 q 115 796 115 817 q 100 761 115 775 q 65 746 85 746 q 30 761 44 746 q 16 796 16 775 q 30 831 16 817 q 66 846 45 846 z "},"ì":{"ha":149,"x_min":-40,"x_max":135,"o":"m 28 652 l 121 652 l 121 0 l 28 0 l 28 652 m 60 749 l -40 946 l 59 946 l 135 749 l 60 749 z "},"í":{"ha":149,"x_min":23,"x_max":198,"o":"m 27 652 l 120 652 l 120 0 l 27 0 l 27 652 m 99 946 l 198 946 l 98 749 l 23 749 l 99 946 z "},"î":{"ha":149,"x_min":-58,"x_max":207,"o":"m 28 652 l 121 652 l 121 0 l 28 0 l 28 652 m 44 944 l 111 944 l 207 750 l 129 750 l 76 865 l 22 750 l -58 750 l 44 944 z "},"ï":{"ha":149,"x_min":-46,"x_max":194,"o":"m 27 652 l 120 652 l 120 0 l 27 0 l 27 652 m 144 849 q 179 834 165 849 q 194 799 194 819 q 179 763 194 778 q 144 748 165 748 q 108 763 123 748 q 94 799 94 778 q 109 834 94 820 q 144 849 123 849 m 4 846 q 39 831 24 846 q 53 796 53 817 q 38 761 53 775 q 3 746 24 746 q -32 761 -18 746 q -46 796 -46 775 q -32 831 -46 817 q 4 846 -17 846 z "},"ð":{"ha":269,"x_min":28,"x_max":241,"o":"m 138 795 l 86 752 l 43 804 l 90 842 q 43 852 66 852 l 28 852 l 55 930 l 79 930 l 75 930 q 80 928 77 928 l 85 928 q 91 928 88 928 q 159 901 123 928 l 193 930 l 237 878 l 207 853 q 241 756 241 806 l 241 120 q 224 37 241 61 q 132 -4 195 -4 q 28 100 28 -4 l 28 549 q 39 606 28 584 q 79 643 52 629 q 141 657 107 657 q 153 656 148 657 l 153 729 q 138 795 153 768 m 117 534 l 117 126 q 135 94 117 94 q 153 123 153 94 l 153 534 q 136 563 153 563 q 117 534 117 563 z "},"ñ":{"ha":271,"x_min":-8,"x_max":279,"o":"m 28 0 l 28 652 l 115 652 l 117 625 q 172 652 142 652 q 243 555 243 652 l 243 0 l 150 0 l 150 523 q 146 553 150 546 q 133 561 143 561 q 116 549 120 561 l 116 0 l 28 0 m 50 768 l -8 768 q -3 804 -6 789 q 27 859 5 839 q 77 879 48 879 q 146 851 109 879 q 188 831 174 831 q 221 874 212 831 l 279 874 q 193 764 269 764 q 134 786 165 764 q 82 811 98 811 q 50 768 58 811 z "},"ò":{"ha":269,"x_min":20,"x_max":240,"o":"m 240 543 l 240 120 q 223 37 240 62 q 132 -4 195 -4 q 28 100 28 -4 l 28 549 q 39 606 28 584 q 79 643 52 629 q 139 657 107 657 q 240 543 240 657 m 117 534 l 117 126 q 134 94 117 94 q 152 123 152 94 l 152 534 q 135 563 152 563 q 117 534 117 563 m 119 749 l 20 946 l 119 946 l 195 749 l 119 749 z "},"ó":{"ha":269,"x_min":28,"x_max":258,"o":"m 241 543 l 241 120 q 224 37 241 62 q 132 -4 195 -4 q 28 100 28 -4 l 28 549 q 39 606 28 584 q 79 643 52 629 q 140 657 107 657 q 241 543 241 657 m 117 534 l 117 126 q 135 94 117 94 q 153 123 153 94 l 153 534 q 136 563 153 563 q 117 534 117 563 m 159 946 l 258 946 l 159 749 l 83 749 l 159 946 z "},"ô":{"ha":269,"x_min":1,"x_max":267,"o":"m 241 543 l 241 120 q 224 37 241 61 q 132 -4 195 -4 q 28 100 28 -4 l 28 549 q 39 606 28 584 q 79 643 52 629 q 140 657 107 657 q 241 543 241 657 m 117 534 l 117 126 q 135 94 117 94 q 153 123 153 94 l 153 534 q 136 563 153 563 q 117 534 117 563 m 104 944 l 170 944 l 267 750 l 189 750 l 136 865 l 81 750 l 1 750 l 104 944 z "},"õ":{"ha":269,"x_min":-9,"x_max":277,"o":"m 240 543 l 240 120 q 223 37 240 62 q 132 -4 195 -4 q 27 100 27 -4 l 27 549 q 39 606 27 584 q 79 643 51 629 q 139 657 106 657 q 240 543 240 657 m 116 534 l 116 126 q 134 94 116 94 q 152 123 152 94 l 152 534 q 135 563 152 563 q 116 534 116 563 m 48 768 l -9 768 q -4 804 -7 789 q 25 859 4 839 q 75 879 47 879 q 144 851 107 879 q 186 831 172 831 q 220 874 210 831 l 277 874 q 191 764 267 764 q 132 786 164 764 q 81 811 97 811 q 48 768 57 811 z "},"ö":{"ha":269,"x_min":14,"x_max":255,"o":"m 241 543 l 241 120 q 224 37 241 62 q 132 -4 195 -4 q 28 100 28 -4 l 28 549 q 39 606 28 584 q 79 643 52 629 q 140 657 107 657 q 241 543 241 657 m 117 534 l 117 126 q 135 94 117 94 q 153 123 153 94 l 153 534 q 136 563 153 563 q 117 534 117 563 m 205 849 q 240 834 226 849 q 255 799 255 819 q 240 763 255 778 q 205 748 226 748 q 169 763 184 748 q 155 799 155 778 q 170 834 155 820 q 205 849 184 849 m 64 846 q 98 831 84 846 q 113 796 113 817 q 98 761 113 775 q 63 746 83 746 q 28 761 42 746 q 14 796 14 775 q 28 831 14 817 q 64 846 43 846 z "},"÷":{"ha":361,"x_min":28,"x_max":334,"o":"m 28 481 l 334 481 l 334 385 l 28 385 l 28 481 m 182 683 q 224 666 208 683 q 241 622 241 648 q 224 579 241 597 q 182 561 206 561 q 139 579 157 561 q 121 623 121 597 q 138 666 121 649 q 182 683 155 683 m 180 300 q 223 282 206 300 q 240 239 240 265 q 222 196 240 214 q 180 178 205 178 q 138 196 155 178 q 120 239 120 214 q 137 283 120 266 q 180 300 154 300 z "},"ø":{"ha":290,"x_min":28,"x_max":271,"o":"m 75 14 l 65 -22 l 28 -14 l 47 49 q 39 100 39 71 l 39 549 q 51 606 39 584 q 91 643 63 629 q 151 657 119 657 q 222 633 194 657 l 234 673 l 271 666 l 248 588 q 252 543 252 570 l 252 120 q 235 37 252 62 q 144 -4 207 -4 q 75 14 104 -4 m 128 320 l 164 440 l 164 534 q 147 563 164 563 q 128 534 128 563 l 128 320 m 164 123 l 164 309 l 128 189 l 128 126 q 146 94 128 94 q 164 123 164 94 z "},"ù":{"ha":273,"x_min":28,"x_max":245,"o":"m 155 652 l 245 652 l 245 132 q 230 42 245 67 q 137 -4 203 -4 q 28 116 28 -4 l 28 652 l 119 652 l 119 126 q 138 92 119 92 q 155 125 155 92 l 155 652 m 134 749 l 34 946 l 133 946 l 209 749 l 134 749 z "},"ú":{"ha":273,"x_min":28,"x_max":275,"o":"m 155 652 l 245 652 l 245 132 q 230 42 245 67 q 137 -4 203 -4 q 28 116 28 -4 l 28 652 l 119 652 l 119 126 q 138 92 119 92 q 155 125 155 92 l 155 652 m 176 946 l 275 946 l 176 749 l 100 749 l 176 946 z "},"û":{"ha":273,"x_min":3,"x_max":269,"o":"m 155 652 l 245 652 l 245 132 q 230 42 245 67 q 136 -4 203 -4 q 27 116 27 -4 l 27 652 l 119 652 l 119 126 q 138 92 119 92 q 155 125 155 92 l 155 652 m 106 944 l 172 944 l 269 750 l 191 750 l 138 865 l 83 750 l 3 750 l 106 944 z "},"ü":{"ha":273,"x_min":16,"x_max":257,"o":"m 155 652 l 245 652 l 245 132 q 230 42 245 68 q 137 -4 203 -4 q 28 116 28 -4 l 28 652 l 119 652 l 119 126 q 138 92 119 92 q 155 125 155 92 l 155 652 m 208 849 q 242 834 228 849 q 257 799 257 819 q 242 763 257 778 q 207 748 228 748 q 171 763 186 748 q 157 799 157 778 q 172 834 157 820 q 208 849 186 849 m 66 846 q 100 831 86 846 q 115 796 115 817 q 100 761 115 775 q 65 746 85 746 q 30 761 44 746 q 16 796 16 775 q 30 831 16 817 q 66 846 45 846 z "},"ý":{"ha":238,"x_min":14,"x_max":252,"o":"m 134 652 l 224 652 l 224 -69 q 200 -177 224 -144 q 121 -209 176 -209 q 26 -173 52 -209 q 16 -120 16 -159 l 16 -81 l 103 -81 l 103 -99 q 117 -123 103 -123 q 132 -94 132 -123 l 132 16 q 79 -3 102 -3 q 32 17 50 -3 q 14 70 14 37 l 14 652 l 102 652 l 102 114 q 118 87 102 87 q 134 115 134 87 l 134 652 m 153 946 l 252 946 l 152 749 l 77 749 l 153 946 z "},"þ":{"ha":272,"x_min":28,"x_max":244,"o":"m 28 -208 l 28 926 l 121 926 l 120 629 q 175 655 142 655 q 226 633 208 655 q 244 571 244 611 l 244 91 q 237 43 244 60 q 209 15 229 26 q 170 3 189 3 q 123 20 149 3 l 123 -208 l 28 -208 m 123 543 l 123 118 q 136 92 123 92 q 150 122 150 92 l 150 541 q 138 564 150 564 q 123 543 123 564 z "},"ÿ":{"ha":238,"x_min":-2,"x_max":239,"o":"m 134 652 l 224 652 l 224 -69 q 200 -177 224 -144 q 121 -209 176 -209 q 26 -173 52 -209 q 16 -120 16 -160 l 16 -81 l 103 -81 l 103 -99 q 117 -123 103 -123 q 132 -94 132 -123 l 132 16 q 79 -3 103 -3 q 32 17 50 -3 q 14 70 14 37 l 14 652 l 102 652 l 102 114 q 118 87 102 87 q 134 115 134 87 l 134 652 m 190 849 q 225 834 210 849 q 239 799 239 819 q 225 763 239 778 q 189 748 210 748 q 154 763 168 748 q 139 799 139 778 q 154 834 139 820 q 190 849 169 849 m 48 846 q 83 831 68 846 q 97 796 97 817 q 82 761 97 775 q 47 746 68 746 q 12 761 26 746 q -2 796 -2 775 q 13 831 -2 817 q 48 846 27 846 z "},"Ā":{"ha":330,"x_min":18,"x_max":311,"o":"m 79 926 l 229 926 l 311 0 l 205 0 l 192 179 l 132 179 l 122 0 l 18 0 l 79 926 m 186 277 l 157 710 l 136 277 l 186 277 m 31 1061 l 31 1131 l 281 1131 l 281 1061 l 31 1061 z "},"ā":{"ha":264,"x_min":5,"x_max":254,"o":"m 113 440 l 23 440 l 22 542 q 39 610 22 585 q 132 657 69 657 q 227 597 203 657 q 236 525 236 574 l 236 0 l 147 0 l 146 18 q 98 -4 123 -4 q 24 79 24 -4 l 24 287 q 93 369 24 369 q 142 355 119 369 l 140 538 l 140 539 q 127 558 140 558 q 113 537 113 558 l 113 440 m 115 262 l 115 112 q 129 90 115 90 q 143 113 143 90 l 143 256 q 128 281 143 281 q 115 262 115 281 m 5 786 l 5 857 l 254 857 l 254 786 l 5 786 z "},"Ă":{"ha":330,"x_min":18,"x_max":311,"o":"m 79 926 l 229 926 l 311 0 l 205 0 l 193 179 l 132 179 l 122 0 l 18 0 l 79 926 m 186 277 l 158 710 l 136 277 l 186 277 m 18 1177 l 85 1177 q 156 1108 93 1108 q 216 1143 198 1108 l 227 1177 l 294 1177 q 156 1046 280 1046 q 60 1080 96 1046 q 18 1177 24 1114 z "},"ă":{"ha":264,"x_min":-8,"x_max":267,"o":"m 113 440 l 23 440 l 23 542 q 39 610 22 584 q 132 657 69 657 q 227 597 203 657 q 236 525 236 574 l 236 0 l 147 0 l 146 18 q 98 -4 123 -4 q 24 79 24 -4 l 24 287 q 93 369 24 369 q 142 355 119 369 l 140 538 l 140 539 q 127 558 140 558 q 113 537 113 558 l 113 440 m 115 262 l 115 112 q 129 90 115 90 q 143 113 143 90 l 143 256 q 128 281 143 281 q 115 262 115 281 m -8 886 l 58 886 q 130 818 66 818 q 190 852 172 818 l 201 886 l 267 886 q 130 755 254 755 q 33 789 68 755 q -8 886 -3 823 z "},"Ą":{"ha":330,"x_min":18,"x_max":318,"o":"m 311 0 l 275 0 l 272 -4 q 241 -92 241 -56 q 253 -124 241 -111 q 285 -137 265 -137 q 317 -134 296 -137 l 318 -195 q 269 -199 288 -199 q 191 -173 220 -199 q 161 -102 161 -146 q 202 5 161 -56 l 204 7 l 192 179 l 132 179 l 122 0 l 18 0 l 79 926 l 229 926 l 311 0 m 186 277 l 157 710 l 136 277 l 186 277 z "},"ą":{"ha":264,"x_min":23,"x_max":256,"o":"m 236 0 l 218 0 q 198 -74 198 -45 q 237 -117 198 -117 q 256 -116 241 -117 l 256 -174 q 220 -178 231 -178 q 146 -152 174 -178 q 117 -85 117 -127 q 147 5 117 -53 l 146 18 q 98 -4 123 -4 q 24 79 24 -4 l 24 287 q 93 369 24 369 q 142 355 119 369 l 140 538 l 140 539 q 127 558 140 558 q 113 537 113 558 l 113 440 l 23 440 l 23 542 q 39 610 23 585 q 132 657 69 657 q 227 597 203 657 q 236 525 236 574 l 236 0 m 115 262 l 115 112 q 129 90 115 90 q 143 113 143 90 l 143 256 q 128 281 143 281 q 115 262 115 281 z "},"Ć":{"ha":273,"x_min":28,"x_max":276,"o":"m 255 630 l 159 630 l 159 810 q 156 833 159 828 q 142 839 153 839 q 125 814 125 839 l 125 122 q 129 97 125 103 q 142 92 132 92 q 159 115 159 92 l 159 299 l 254 299 l 254 113 q 235 39 254 66 q 139 -7 202 -7 q 58 21 88 -7 q 28 97 28 49 l 28 803 q 140 936 28 936 q 223 909 192 936 q 255 838 255 882 l 255 630 m 177 1215 l 276 1215 l 177 1019 l 101 1019 l 177 1215 z "},"ć":{"ha":254,"x_min":28,"x_max":256,"o":"m 236 443 l 144 443 l 144 544 q 130 568 144 568 q 116 546 116 568 l 116 111 q 130 87 116 87 q 144 112 144 87 l 144 201 l 236 201 l 236 115 q 222 50 236 76 q 185 11 210 25 q 129 -4 159 -4 q 55 22 82 -4 q 28 95 28 49 l 28 551 q 39 604 28 582 q 137 657 68 657 q 236 545 236 657 l 236 443 m 157 946 l 256 946 l 157 749 l 81 749 l 157 946 z "},"Ĉ":{"ha":273,"x_min":14,"x_max":279,"o":"m 255 630 l 159 630 l 159 810 q 156 833 159 828 q 142 839 153 839 q 125 814 125 839 l 125 122 q 129 98 125 104 q 142 92 132 92 q 159 115 159 92 l 159 299 l 254 299 l 254 113 q 235 39 254 66 q 139 -7 202 -7 q 58 21 88 -7 q 28 97 28 49 l 28 803 q 140 936 28 936 q 223 909 192 936 q 255 838 255 882 l 255 630 m 116 1213 l 182 1213 l 279 1019 l 201 1019 l 148 1134 l 94 1019 l 14 1019 l 116 1213 z "},"Ċ":{"ha":273,"x_min":28,"x_max":255,"o":"m 255 630 l 159 630 l 159 810 q 156 833 159 828 q 142 839 153 839 q 125 814 125 839 l 125 122 q 129 97 125 103 q 142 92 132 92 q 159 115 159 92 l 159 299 l 254 299 l 254 113 q 235 39 254 66 q 139 -7 202 -7 q 58 21 88 -7 q 28 97 28 49 l 28 803 q 140 936 28 936 q 223 909 192 936 q 255 838 255 882 l 255 630 m 142 1113 q 177 1098 163 1113 q 191 1063 191 1084 q 177 1028 191 1042 q 142 1013 162 1013 q 106 1028 121 1013 q 92 1063 92 1042 q 107 1099 92 1084 q 142 1113 121 1113 z "},"ċ":{"ha":254,"x_min":28,"x_max":236,"o":"m 236 443 l 144 443 l 144 544 q 130 568 144 568 q 116 546 116 568 l 116 111 q 130 87 116 87 q 144 112 144 87 l 144 201 l 236 201 l 236 115 q 222 50 236 76 q 185 11 210 25 q 129 -4 159 -4 q 55 22 82 -4 q 28 95 28 49 l 28 551 q 39 604 28 582 q 137 657 68 657 q 236 545 236 657 l 236 443 m 133 846 q 172 829 155 846 q 189 788 189 812 q 172 748 189 764 q 132 731 155 731 q 92 748 108 731 q 75 789 75 764 q 92 829 75 812 q 133 846 109 846 z "},"Č":{"ha":273,"x_min":14,"x_max":279,"o":"m 255 630 l 159 630 l 159 810 q 156 833 159 828 q 142 839 153 839 q 125 814 125 839 l 125 122 q 129 98 125 104 q 142 92 132 92 q 159 115 159 92 l 159 299 l 254 299 l 254 113 q 235 39 254 66 q 139 -7 202 -7 q 58 21 88 -7 q 28 97 28 49 l 28 803 q 140 936 28 936 q 223 909 192 936 q 255 838 255 882 l 255 630 m 176 1019 l 110 1019 l 14 1213 l 92 1213 l 145 1098 l 199 1213 l 279 1213 l 176 1019 z "},"č":{"ha":254,"x_min":-1,"x_max":264,"o":"m 236 443 l 144 443 l 144 544 q 130 568 144 568 q 116 546 116 568 l 116 111 q 130 87 116 87 q 144 112 144 87 l 144 201 l 236 201 l 236 115 q 222 50 236 76 q 185 11 210 25 q 129 -4 159 -4 q 55 22 82 -4 q 28 95 28 49 l 28 551 q 40 604 28 582 q 137 657 69 657 q 236 545 236 657 l 236 443 m 162 750 l 96 750 l -1 944 l 77 944 l 131 829 l 184 944 l 264 944 l 162 750 z "},"Ď":{"ha":283,"x_min":14,"x_max":279,"o":"m 28 0 l 28 926 l 146 926 q 229 903 201 927 q 256 829 256 878 l 256 103 q 151 0 256 0 l 28 0 m 128 833 l 129 97 l 138 97 q 161 130 161 97 l 161 800 q 156 827 161 820 q 138 833 151 833 l 128 833 m 176 1019 l 110 1019 l 14 1213 l 92 1213 l 145 1098 l 199 1213 l 279 1213 l 176 1019 z "},"ď":{"ha":392,"x_min":28,"x_max":401,"o":"m 153 928 l 248 928 l 248 0 l 154 0 l 153 20 q 98 -2 125 -2 q 28 104 28 -2 l 28 555 q 100 655 28 655 q 153 633 123 655 l 153 928 m 126 526 l 126 116 q 140 89 126 89 q 155 113 155 89 l 155 525 q 140 553 155 553 q 126 526 126 553 m 281 766 l 313 928 l 401 928 l 353 766 l 281 766 z "},"Đ":{"ha":293,"x_min":5,"x_max":265,"o":"m 38 0 l 38 431 l 5 431 l 5 501 l 38 501 l 37 926 l 156 926 q 265 829 265 926 l 265 103 q 161 0 265 0 l 38 0 m 158 431 l 138 431 l 138 97 l 148 97 q 170 130 170 97 l 170 800 q 166 827 170 820 q 148 833 161 833 l 138 833 l 138 501 l 158 501 l 158 431 z "},"đ":{"ha":289,"x_min":28,"x_max":284,"o":"m 248 928 l 248 806 l 284 806 l 284 736 l 248 736 l 248 0 l 154 0 l 153 20 q 97 -2 125 -2 q 28 104 28 -2 l 28 555 q 99 655 28 655 q 153 633 123 655 l 153 736 l 94 736 l 94 806 l 153 806 l 153 928 l 248 928 m 126 526 l 126 116 q 140 89 126 89 q 155 113 155 89 l 155 525 q 140 553 155 553 q 126 526 126 553 z "},"Ē":{"ha":229,"x_min":3,"x_max":218,"o":"m 28 0 l 28 926 l 210 926 l 210 834 l 130 834 l 130 513 l 210 513 l 210 420 l 130 420 l 130 96 l 210 96 l 210 0 l 28 0 m 3 1061 l 3 1131 l 218 1131 l 218 1061 l 3 1061 z "},"ē":{"ha":268,"x_min":23,"x_max":254,"o":"m 242 539 l 242 286 l 119 286 l 119 117 q 132 94 119 94 q 144 98 141 94 q 147 118 147 103 l 147 202 l 244 202 l 244 130 q 224 38 244 67 q 136 -4 195 -4 q 74 12 102 -4 q 35 52 45 27 q 28 100 28 68 l 28 526 q 44 612 28 582 q 136 657 68 657 q 242 539 242 657 m 118 544 l 118 368 l 146 368 l 146 542 q 132 565 146 565 q 118 544 118 565 m 23 786 l 23 857 l 254 857 l 254 786 l 23 786 z "},"Ĕ":{"ha":229,"x_min":-19,"x_max":256,"o":"m 28 0 l 28 926 l 210 926 l 210 834 l 130 834 l 130 513 l 210 513 l 210 420 l 130 420 l 130 96 l 210 96 l 210 0 l 28 0 m -19 1177 l 47 1177 q 119 1108 56 1108 q 179 1143 161 1108 l 190 1177 l 256 1177 q 119 1046 243 1046 q 22 1080 58 1046 q -19 1177 -14 1114 z "},"ĕ":{"ha":267,"x_min":-1,"x_max":274,"o":"m 243 539 l 243 286 l 119 286 l 119 117 q 133 94 119 94 q 145 98 142 94 q 148 118 148 103 l 148 202 l 245 202 l 245 130 q 225 38 245 67 q 136 -4 195 -4 q 74 12 102 -4 q 35 52 45 27 q 28 100 28 68 l 28 526 q 44 612 28 582 q 136 657 68 657 q 243 539 243 657 m 118 544 l 118 368 l 146 368 l 146 542 q 132 565 146 565 q 118 544 118 565 m -1 886 l 65 886 q 136 818 73 818 q 197 852 178 818 l 208 886 l 274 886 q 136 755 260 755 q 40 789 75 755 q -1 886 4 823 z "},"Ė":{"ha":229,"x_min":28,"x_max":210,"o":"m 28 0 l 28 926 l 210 926 l 210 834 l 130 834 l 130 513 l 210 513 l 210 420 l 130 420 l 130 96 l 210 96 l 210 0 l 28 0 m 120 1113 q 155 1098 140 1113 q 169 1063 169 1084 q 154 1028 169 1042 q 119 1013 140 1013 q 84 1028 98 1013 q 70 1063 70 1042 q 84 1099 70 1084 q 120 1113 99 1113 z "},"ė":{"ha":267,"x_min":28,"x_max":244,"o":"m 242 539 l 242 286 l 119 286 l 119 117 q 132 94 119 94 q 147 118 147 94 l 147 202 l 244 202 l 244 130 q 224 38 244 67 q 136 -4 195 -4 q 74 12 102 -4 q 35 52 45 27 q 28 100 28 68 l 28 526 q 44 612 28 582 q 136 657 68 657 q 242 539 242 657 m 118 544 l 118 368 l 146 368 l 146 542 q 132 565 146 565 q 118 544 118 565 m 137 846 q 176 829 159 846 q 193 788 193 812 q 176 748 193 764 q 136 731 159 731 q 96 748 112 731 q 79 789 79 764 q 96 829 79 812 q 137 846 113 846 z "},"Ę":{"ha":229,"x_min":28,"x_max":214,"o":"m 210 0 l 171 0 l 168 -4 q 137 -92 137 -56 q 149 -124 137 -111 q 180 -137 161 -137 q 214 -134 192 -137 l 214 -195 q 165 -199 184 -199 q 86 -173 116 -199 q 57 -102 57 -146 q 95 0 57 -56 l 28 0 l 28 926 l 210 926 l 210 834 l 130 834 l 130 513 l 210 513 l 210 420 l 130 420 l 130 96 l 210 96 l 210 0 z "},"ę":{"ha":267,"x_min":28,"x_max":248,"o":"m 206 15 q 179 -74 179 -39 q 190 -105 179 -94 q 219 -117 201 -117 q 237 -116 224 -117 l 237 -174 q 201 -178 212 -178 q 127 -152 155 -178 q 99 -85 99 -127 q 115 -22 99 -57 q 123 -3 123 -4 q 32 100 28 14 l 32 526 q 48 612 32 582 q 140 657 73 657 q 246 539 246 657 l 246 286 l 123 286 l 123 117 q 136 94 123 94 q 151 118 151 94 l 151 202 l 248 202 l 248 130 q 239 58 248 83 q 206 15 229 32 m 122 544 l 122 368 l 150 368 l 150 542 q 136 565 150 565 q 122 544 122 565 z "},"Ě":{"ha":229,"x_min":-9,"x_max":256,"o":"m 28 0 l 28 926 l 210 926 l 210 834 l 130 834 l 130 513 l 210 513 l 210 420 l 130 420 l 130 96 l 210 96 l 210 0 l 28 0 m 154 1019 l 87 1019 l -9 1213 l 69 1213 l 123 1098 l 176 1213 l 256 1213 l 154 1019 z "},"ě":{"ha":267,"x_min":3,"x_max":269,"o":"m 242 539 l 242 286 l 119 286 l 119 117 q 132 94 119 94 q 147 118 147 94 l 147 202 l 244 202 l 244 130 q 224 38 244 67 q 136 -4 195 -4 q 74 12 102 -4 q 35 52 45 27 q 28 100 28 68 l 28 526 q 44 612 28 582 q 136 657 68 657 q 242 539 242 657 m 118 544 l 118 368 l 146 368 l 146 542 q 132 565 146 565 q 118 544 118 565 m 166 750 l 100 750 l 3 944 l 81 944 l 135 829 l 189 944 l 269 944 l 166 750 z "},"Ĝ":{"ha":279,"x_min":14,"x_max":279,"o":"m 142 358 l 142 476 l 256 476 l 256 106 q 225 23 256 54 q 142 -7 195 -7 q 58 20 88 -7 q 28 98 28 48 l 28 795 q 47 887 28 856 q 142 936 79 936 q 223 907 194 936 q 253 825 253 878 l 253 629 l 160 629 l 160 806 q 157 833 160 827 q 144 840 154 840 q 126 818 126 840 l 126 105 q 142 85 126 85 q 159 108 159 85 l 159 358 l 142 358 m 116 1213 l 182 1213 l 279 1019 l 201 1019 l 148 1134 l 94 1019 l 14 1019 l 116 1213 z "},"ĝ":{"ha":271,"x_min":3,"x_max":268,"o":"m 149 652 l 243 652 l 243 -84 q 233 -157 243 -125 q 130 -221 213 -221 q 45 -180 68 -221 q 32 -88 32 -157 l 121 -88 q 120 -104 120 -91 l 120 -118 q 133 -134 120 -134 q 146 -112 146 -134 l 147 16 q 96 -3 122 -3 q 46 22 64 -3 q 28 89 28 47 l 28 548 q 95 652 28 652 q 148 631 125 652 l 149 652 m 120 538 l 120 106 q 132 85 120 85 q 147 104 147 85 l 147 539 q 134 563 147 563 q 120 538 120 563 m 105 944 l 172 944 l 268 750 l 190 750 l 137 865 l 83 750 l 3 750 l 105 944 z "},"Ğ":{"ha":279,"x_min":4,"x_max":279,"o":"m 143 358 l 143 476 l 256 476 l 256 106 q 225 23 256 54 q 142 -7 195 -7 q 58 20 89 -7 q 28 98 28 48 l 28 795 q 47 887 28 856 q 142 936 79 936 q 201 921 174 936 q 243 882 229 906 q 253 825 253 863 l 253 629 l 160 629 l 160 806 q 157 833 160 827 q 144 840 155 840 q 126 818 126 840 l 126 105 q 143 85 126 85 q 159 108 159 85 l 159 358 l 143 358 m 4 1177 l 71 1177 q 142 1108 79 1108 q 202 1143 184 1108 l 213 1177 l 279 1177 q 142 1046 266 1046 q 45 1080 81 1046 q 4 1177 9 1114 z "},"ğ":{"ha":271,"x_min":-2,"x_max":273,"o":"m 150 652 l 243 652 l 243 -84 q 234 -157 243 -125 q 130 -221 214 -221 q 45 -180 68 -221 q 32 -88 32 -157 l 120 -88 l 120 -104 l 120 -118 q 134 -134 120 -134 q 147 -112 147 -134 l 148 16 q 96 -3 121 -3 q 46 22 64 -3 q 28 89 28 47 l 28 548 q 95 652 28 652 q 149 631 125 652 l 150 652 m 120 538 l 120 106 q 133 85 120 85 q 148 104 148 85 l 148 539 q 135 563 148 563 q 120 538 120 563 m -2 886 l 64 886 q 136 818 73 818 q 196 852 178 818 l 207 886 l 273 886 q 136 755 260 755 q 39 789 75 755 q -2 886 3 823 z "},"Ġ":{"ha":279,"x_min":28,"x_max":256,"o":"m 142 358 l 142 476 l 256 476 l 256 106 q 225 23 256 54 q 142 -7 195 -7 q 58 20 88 -7 q 28 98 28 48 l 28 795 q 47 887 28 856 q 142 936 79 936 q 201 921 174 936 q 243 882 229 906 q 253 825 253 863 l 253 629 l 160 629 l 160 806 q 157 834 160 828 q 144 840 155 840 q 126 818 126 840 l 126 105 q 142 85 126 85 q 159 108 159 85 l 159 358 l 142 358 m 142 1113 q 177 1098 163 1113 q 191 1063 191 1084 q 177 1028 191 1042 q 142 1013 162 1013 q 106 1028 121 1013 q 92 1063 92 1042 q 107 1099 92 1084 q 142 1113 121 1113 z "},"ġ":{"ha":271,"x_min":28,"x_max":243,"o":"m 150 652 l 243 652 l 243 -84 q 234 -157 243 -125 q 130 -221 214 -221 q 45 -180 68 -221 q 32 -88 32 -157 l 121 -88 q 120 -104 120 -91 l 120 -118 q 134 -134 120 -134 q 147 -112 147 -134 l 148 16 q 96 -3 123 -3 q 46 22 64 -3 q 28 89 28 47 l 28 548 q 95 652 28 652 q 149 631 125 652 l 150 652 m 120 538 l 120 106 q 133 85 120 85 q 148 104 148 85 l 148 539 q 135 563 148 563 q 120 538 120 563 m 136 846 q 175 829 159 846 q 192 788 192 812 q 175 748 192 764 q 135 731 159 731 q 95 748 111 731 q 79 789 79 764 q 95 829 79 812 q 136 846 112 846 z "},"Ģ":{"ha":279,"x_min":28,"x_max":256,"o":"m 142 358 l 142 476 l 256 476 l 256 106 q 225 23 256 54 q 142 -7 195 -7 q 58 20 88 -7 q 28 98 28 48 l 28 795 q 47 887 28 856 q 142 936 79 936 q 201 921 174 936 q 243 882 229 906 q 253 825 253 863 l 253 629 l 160 629 l 160 806 q 157 834 160 828 q 144 840 155 840 q 126 818 126 840 l 126 105 q 142 85 126 85 q 159 108 159 85 l 159 358 l 142 358 m 72 -217 l 103 -55 l 191 -55 l 143 -217 l 72 -217 z "},"ģ":{"ha":271,"x_min":28,"x_max":243,"o":"m 150 652 l 243 652 l 243 -84 q 234 -157 243 -125 q 130 -221 214 -221 q 45 -180 68 -221 q 32 -88 32 -157 l 121 -88 q 120 -104 120 -91 l 120 -118 q 134 -134 120 -134 q 147 -112 147 -134 l 148 16 q 96 -3 123 -3 q 46 22 64 -3 q 28 89 28 47 l 28 548 q 95 652 28 652 q 149 631 125 652 l 150 652 m 120 538 l 120 106 q 133 85 120 85 q 148 104 148 85 l 148 539 q 135 563 148 563 q 120 538 120 563 m 221 911 l 190 749 l 102 749 l 150 911 l 221 911 z "},"Ĥ":{"ha":288,"x_min":16,"x_max":281,"o":"m 161 926 l 260 926 l 260 0 l 161 0 l 161 414 l 130 414 l 130 0 l 28 0 l 28 926 l 130 926 l 130 515 l 161 515 l 161 926 m 119 1213 l 185 1213 l 281 1019 l 203 1019 l 151 1134 l 96 1019 l 16 1019 l 119 1213 z "},"Ħ":{"ha":309,"x_min":9,"x_max":300,"o":"m 272 926 l 272 736 l 300 736 l 300 665 l 272 665 l 272 0 l 173 0 l 173 414 l 142 414 l 142 0 l 39 0 l 39 665 l 9 665 l 9 736 l 39 736 l 39 926 l 142 926 l 142 736 l 173 736 l 173 926 l 272 926 m 173 665 l 142 665 l 142 515 l 173 515 l 173 665 z "},"ħ":{"ha":289,"x_min":5,"x_max":261,"o":"m 136 926 l 136 806 l 201 806 l 201 736 l 136 736 l 136 643 q 180 656 158 656 q 255 606 238 656 q 261 553 261 590 l 261 0 l 164 0 l 164 537 q 149 564 164 564 q 136 554 140 564 l 136 0 l 41 0 l 41 736 l 5 736 l 5 806 l 41 806 l 41 926 l 136 926 z "},"Ī":{"ha":157,"x_min":-28,"x_max":180,"o":"m 28 926 l 130 926 l 130 0 l 28 0 l 28 926 m -28 1061 l -28 1131 l 180 1131 l 180 1061 l -28 1061 z "},"ī":{"ha":149,"x_min":-33,"x_max":187,"o":"m 27 652 l 120 652 l 120 0 l 27 0 l 27 652 m -33 786 l -33 857 l 187 857 l 187 786 l -33 786 z "},"ĭ":{"ha":149,"x_min":-64,"x_max":212,"o":"m 27 652 l 120 652 l 120 0 l 27 0 l 27 652 m -64 886 l 3 886 q 74 818 11 818 q 134 852 116 818 l 145 886 l 212 886 q 74 755 198 755 q -23 789 13 755 q -64 886 -58 823 z "},"Į":{"ha":157,"x_min":-9,"x_max":147,"o":"m 130 0 l 104 0 q 98 -10 103 -3 q 71 -91 71 -56 q 83 -123 71 -111 q 114 -136 95 -136 q 146 -133 126 -136 l 147 -195 q 98 -199 115 -199 q 20 -172 50 -199 q -9 -102 -9 -146 q 28 0 -9 -56 l 28 0 l 28 926 l 130 926 l 130 0 z "},"į":{"ha":149,"x_min":-3,"x_max":139,"o":"m 121 0 l 97 0 q 77 -74 77 -47 q 89 -105 77 -93 q 117 -117 100 -117 q 136 -116 130 -117 l 136 -174 q 99 -177 110 -177 q 25 -152 54 -177 q -3 -85 -3 -126 q 28 8 -3 -47 l 28 652 l 121 652 l 121 0 m 78 846 q 122 827 105 846 q 139 780 139 809 q 121 735 139 753 q 78 718 104 718 q 32 736 51 718 q 14 781 14 754 q 32 827 14 808 q 78 846 50 846 z "},"İ":{"ha":157,"x_min":28,"x_max":130,"o":"m 28 926 l 130 926 l 130 0 l 28 0 l 28 926 m 79 1113 q 114 1098 100 1113 q 128 1063 128 1084 q 114 1028 128 1042 q 79 1013 99 1013 q 43 1028 58 1013 q 29 1063 29 1042 q 44 1099 29 1084 q 79 1113 58 1113 z "},"ı":{"ha":149,"x_min":28,"x_max":121,"o":"m 28 652 l 121 652 l 121 0 l 28 0 l 28 652 z "},"Ķ":{"ha":310,"x_min":28,"x_max":291,"o":"m 28 0 l 28 926 l 128 926 l 128 537 l 178 926 l 281 926 l 210 440 l 291 0 l 179 0 l 130 338 l 130 0 l 28 0 m 90 -217 l 121 -55 l 209 -55 l 161 -217 l 90 -217 z "},"ķ":{"ha":280,"x_min":28,"x_max":262,"o":"m 28 926 l 124 926 l 124 395 l 167 650 l 262 650 l 199 328 l 259 0 l 162 0 l 124 235 l 124 0 l 28 0 l 28 926 m 75 -217 l 106 -55 l 194 -55 l 146 -217 l 75 -217 z "},"Ĺ":{"ha":224,"x_min":28,"x_max":210,"o":"m 28 0 l 28 926 l 130 926 l 130 96 l 210 96 l 210 0 l 28 0 m 111 1215 l 210 1215 l 111 1019 l 35 1019 l 111 1215 z "},"ĺ":{"ha":149,"x_min":25,"x_max":200,"o":"m 28 926 l 121 926 l 121 0 l 28 0 l 28 926 m 101 1215 l 200 1215 l 100 1019 l 25 1019 l 101 1215 z "},"Ļ":{"ha":224,"x_min":28,"x_max":210,"o":"m 28 0 l 28 926 l 130 926 l 130 96 l 210 96 l 210 0 l 28 0 m 49 -217 l 80 -55 l 169 -55 l 120 -217 l 49 -217 z "},"ļ":{"ha":149,"x_min":5,"x_max":124,"o":"m 28 926 l 121 926 l 121 0 l 28 0 l 28 926 m 5 -217 l 36 -55 l 124 -55 l 76 -217 l 5 -217 z "},"Ľ":{"ha":284,"x_min":28,"x_max":293,"o":"m 28 0 l 28 926 l 130 926 l 130 96 l 210 96 l 210 0 l 28 0 m 174 764 l 205 926 l 293 926 l 245 764 l 174 764 z "},"ľ":{"ha":256,"x_min":28,"x_max":265,"o":"m 28 926 l 121 926 l 121 0 l 28 0 l 28 926 m 146 764 l 177 926 l 265 926 l 217 764 l 146 764 z "},"Ŀ":{"ha":252,"x_min":28,"x_max":252,"o":"m 28 0 l 28 926 l 130 926 l 130 96 l 210 96 l 210 0 l 28 0 m 203 527 q 238 512 224 527 q 252 477 252 498 q 238 442 252 456 q 203 427 223 427 q 168 442 182 427 q 153 477 153 456 q 168 513 153 498 q 203 527 182 527 z "},"ŀ":{"ha":232,"x_min":28,"x_max":241,"o":"m 28 926 l 121 926 l 121 0 l 28 0 l 28 926 m 193 498 q 227 484 213 498 q 241 449 241 469 q 227 413 241 428 q 192 399 212 399 q 157 413 171 399 q 142 449 142 428 q 157 484 142 469 q 193 498 172 498 z "},"Ł":{"ha":251,"x_min":18,"x_max":236,"o":"m 156 926 l 156 642 l 203 762 l 203 609 l 156 489 l 156 96 l 236 96 l 236 0 l 54 0 l 54 231 l 18 142 l 18 294 l 54 384 l 54 926 l 156 926 z "},"ł":{"ha":215,"x_min":18,"x_max":196,"o":"m 149 926 l 149 642 l 196 762 l 196 609 l 149 490 l 149 96 l 148 96 l 148 0 l 54 0 l 54 232 l 18 142 l 18 294 l 54 384 l 54 926 l 149 926 z "},"Ń":{"ha":317,"x_min":28,"x_max":291,"o":"m 28 0 l 28 926 l 134 926 l 200 392 l 200 926 l 290 926 l 290 0 l 179 0 l 121 463 l 123 0 l 28 0 m 192 1215 l 291 1215 l 191 1019 l 116 1019 l 192 1215 z "},"ń":{"ha":271,"x_min":28,"x_max":260,"o":"m 28 0 l 28 652 l 115 652 l 117 625 q 172 652 141 652 q 243 555 243 652 l 243 0 l 150 0 l 150 523 q 146 553 150 546 q 133 561 143 561 q 116 549 120 561 l 116 0 l 28 0 m 160 946 l 260 946 l 160 749 l 84 749 l 160 946 z "},"Ņ":{"ha":317,"x_min":28,"x_max":290,"o":"m 28 0 l 28 926 l 134 926 l 200 392 l 200 926 l 290 926 l 290 0 l 179 0 l 121 463 l 123 0 l 28 0 m 89 -217 l 120 -55 l 208 -55 l 160 -217 l 89 -217 z "},"ņ":{"ha":271,"x_min":28,"x_max":243,"o":"m 28 0 l 28 652 l 115 652 l 117 625 q 172 652 141 652 q 243 555 243 652 l 243 0 l 150 0 l 150 523 q 146 553 150 546 q 133 561 143 561 q 116 549 120 561 l 116 0 l 28 0 m 65 -217 l 96 -55 l 185 -55 l 137 -217 l 65 -217 z "},"Ň":{"ha":317,"x_min":28,"x_max":299,"o":"m 28 0 l 28 926 l 134 926 l 200 392 l 200 926 l 290 926 l 290 0 l 179 0 l 121 463 l 123 0 l 28 0 m 197 1019 l 130 1019 l 34 1213 l 112 1213 l 165 1098 l 219 1213 l 299 1213 l 197 1019 z "},"ň":{"ha":271,"x_min":3,"x_max":268,"o":"m 28 0 l 28 652 l 115 652 l 117 625 q 172 652 141 652 q 243 555 243 652 l 243 0 l 150 0 l 150 523 q 146 553 150 546 q 133 561 143 561 q 116 549 120 561 l 116 0 l 28 0 m 165 750 l 99 750 l 3 944 l 81 944 l 134 829 l 188 944 l 268 944 l 165 750 z "},"Ō":{"ha":285,"x_min":18,"x_max":267,"o":"m 257 808 l 257 117 q 239 37 257 62 q 141 -7 207 -7 q 55 25 83 -7 q 28 127 28 58 l 28 781 q 45 882 28 850 q 144 936 77 936 q 229 903 200 936 q 257 808 257 871 m 125 805 l 125 118 q 144 87 125 87 q 163 120 163 87 l 163 804 q 159 832 163 825 q 144 839 155 839 q 129 832 132 839 q 125 805 125 825 m 18 1061 l 18 1131 l 267 1131 l 267 1061 l 18 1061 z "},"ō":{"ha":269,"x_min":9,"x_max":259,"o":"m 241 543 l 241 120 q 224 37 241 62 q 132 -4 195 -4 q 28 100 28 -4 l 28 549 q 39 606 28 584 q 79 643 52 629 q 140 657 107 657 q 241 543 241 657 m 117 534 l 117 126 q 135 94 117 94 q 153 123 153 94 l 153 534 q 136 563 153 563 q 117 534 117 563 m 9 786 l 9 857 l 259 857 l 259 786 l 9 786 z "},"Ő":{"ha":285,"x_min":28,"x_max":315,"o":"m 257 808 l 257 117 q 239 37 257 62 q 141 -7 207 -7 q 55 25 83 -7 q 28 127 28 58 l 28 781 q 45 882 28 850 q 144 936 77 936 q 229 903 200 936 q 257 808 257 871 m 125 805 l 125 118 q 144 87 125 87 q 163 120 163 87 l 163 804 q 159 832 163 825 q 144 839 155 839 q 129 832 132 839 q 125 805 125 825 m 115 1215 l 196 1215 l 106 1019 l 39 1019 l 115 1215 m 234 1215 l 315 1215 l 224 1019 l 158 1019 l 234 1215 z "},"ő":{"ha":269,"x_min":28,"x_max":305,"o":"m 241 543 l 241 120 q 224 37 241 62 q 132 -4 195 -4 q 28 100 28 -4 l 28 549 q 39 606 28 584 q 79 643 52 629 q 140 657 107 657 q 241 543 241 657 m 117 534 l 117 126 q 135 94 117 94 q 153 123 153 94 l 153 534 q 136 563 153 563 q 117 534 117 563 m 106 946 l 186 946 l 96 749 l 30 749 l 106 946 m 224 946 l 305 946 l 214 749 l 149 749 l 224 946 z "},"Œ":{"ha":359,"x_min":28,"x_max":340,"o":"m 193 926 l 340 926 l 340 834 l 260 834 l 260 513 l 340 513 l 340 420 l 260 420 l 260 96 l 340 96 l 340 0 l 182 0 q 139 -7 160 -7 q 58 21 88 -7 q 28 96 28 49 l 28 804 q 140 936 28 936 q 193 926 165 936 m 158 103 l 158 828 q 143 840 154 840 q 125 814 125 840 l 125 122 q 129 97 125 103 q 142 92 132 92 q 158 103 154 92 z "},"œ":{"ha":392,"x_min":28,"x_max":369,"o":"m 197 12 q 132 -4 170 -4 q 28 99 28 -4 l 28 549 q 39 606 28 584 q 79 643 52 629 q 140 657 107 657 q 197 643 172 657 q 260 657 225 657 q 367 539 367 657 l 367 286 l 243 286 l 243 117 q 257 94 243 94 q 272 118 272 94 l 272 202 l 369 202 l 369 130 q 262 -4 369 -4 q 197 12 228 -4 m 243 544 l 243 368 l 271 368 l 271 542 q 257 565 271 565 q 243 544 243 565 m 117 534 l 117 126 q 135 94 117 94 q 153 123 153 94 l 153 534 q 136 563 153 563 q 117 534 117 563 z "},"Ŕ":{"ha":280,"x_min":28,"x_max":256,"o":"m 28 0 l 28 926 l 140 926 q 223 901 194 926 q 252 827 252 875 l 252 517 q 241 467 252 491 q 212 433 230 443 q 256 346 256 413 l 256 0 l 155 0 l 155 364 q 136 387 155 387 l 127 387 l 127 0 l 28 0 m 127 832 l 127 477 q 138 477 132 477 q 152 481 149 477 q 155 503 155 486 l 155 803 q 152 827 155 821 q 136 832 148 832 l 127 832 m 157 1215 l 256 1215 l 157 1019 l 81 1019 l 157 1215 z "},"ŕ":{"ha":212,"x_min":28,"x_max":237,"o":"m 28 0 l 28 652 l 117 652 l 119 622 q 173 647 150 647 q 198 640 187 647 l 198 530 q 163 548 180 548 q 128 525 138 548 q 125 487 125 517 l 125 0 l 28 0 m 138 946 l 237 946 l 138 749 l 62 749 l 138 946 z "},"Ŗ":{"ha":280,"x_min":28,"x_max":256,"o":"m 28 0 l 28 926 l 140 926 q 223 901 194 926 q 252 827 252 875 l 252 517 q 241 467 252 491 q 212 433 230 443 q 256 346 256 413 l 256 0 l 155 0 l 155 364 q 136 387 155 387 l 127 387 l 127 0 l 28 0 m 127 832 l 127 477 q 138 477 132 477 q 152 481 149 477 q 155 503 155 486 l 155 803 q 152 827 155 821 q 136 832 148 832 l 127 832 m 72 -217 l 103 -55 l 192 -55 l 143 -217 l 72 -217 z "},"ŗ":{"ha":212,"x_min":14,"x_max":199,"o":"m 28 0 l 28 652 l 117 652 l 119 622 q 173 647 150 647 q 199 640 187 647 l 199 530 q 163 548 181 548 q 128 525 138 548 q 125 487 125 517 l 125 0 l 28 0 m 14 -217 l 45 -55 l 134 -55 l 85 -217 l 14 -217 z "},"Ř":{"ha":280,"x_min":8,"x_max":273,"o":"m 28 0 l 28 926 l 141 926 q 223 901 194 926 q 252 827 252 875 l 252 517 q 241 467 252 491 q 212 433 230 443 q 256 346 256 413 l 256 0 l 155 0 l 155 364 q 136 387 155 387 l 127 387 l 127 0 l 28 0 m 127 832 l 127 477 q 138 477 132 477 q 152 481 149 477 q 155 503 155 486 l 155 803 q 152 827 155 821 q 136 832 148 832 l 127 832 m 171 1019 l 104 1019 l 8 1213 l 86 1213 l 140 1098 l 193 1213 l 273 1213 l 171 1019 z "},"ř":{"ha":212,"x_min":-20,"x_max":245,"o":"m 28 0 l 28 652 l 117 652 l 119 622 q 173 647 150 647 q 198 640 186 647 l 198 530 q 163 548 180 548 q 128 525 138 548 q 125 487 125 517 l 125 0 l 28 0 m 143 750 l 77 750 l -20 944 l 58 944 l 112 829 l 165 944 l 245 944 l 143 750 z "},"Ś":{"ha":264,"x_min":16,"x_max":258,"o":"m 248 633 l 149 633 l 149 806 q 146 831 149 825 q 132 838 142 838 q 120 833 123 838 q 118 813 118 829 l 118 541 q 121 521 118 526 q 136 517 124 517 l 171 517 q 249 431 253 516 l 249 117 q 132 -7 249 -7 q 51 22 81 -7 q 20 102 20 52 l 20 296 l 119 296 l 119 123 q 121 99 119 104 q 134 94 124 94 q 146 99 143 94 q 149 123 149 105 l 149 388 q 144 415 149 410 q 119 420 139 420 l 96 420 q 16 497 16 420 l 16 805 q 39 894 16 865 q 130 936 71 936 q 217 903 185 936 q 248 812 248 869 l 248 633 m 159 1215 l 258 1215 l 159 1019 l 83 1019 l 159 1215 z "},"ś":{"ha":271,"x_min":23,"x_max":260,"o":"m 248 441 l 152 441 l 152 532 q 149 557 151 551 q 137 562 146 562 q 119 534 119 562 l 119 409 q 124 377 119 384 q 153 369 129 371 l 183 367 q 234 349 222 363 q 247 289 247 333 l 247 123 q 224 33 247 62 q 132 -4 194 -4 q 32 45 56 -4 q 23 123 23 62 l 23 197 l 119 197 l 119 127 q 135 92 119 92 q 152 125 152 92 l 152 245 q 148 272 152 266 q 128 279 144 278 l 94 280 q 24 363 24 283 l 24 546 q 140 657 24 657 q 223 625 198 657 q 248 513 248 591 l 248 441 m 160 946 l 260 946 l 160 749 l 84 749 l 160 946 z "},"Ŝ":{"ha":264,"x_min":5,"x_max":270,"o":"m 249 633 l 149 633 l 149 806 q 146 832 149 826 q 133 838 143 838 q 121 833 123 838 q 119 813 119 829 l 119 541 q 122 521 119 526 q 136 517 125 517 l 172 517 q 232 497 214 517 q 250 431 250 477 l 250 117 q 133 -7 250 -7 q 51 22 82 -7 q 20 102 20 52 l 20 296 l 119 296 l 119 123 q 122 99 119 104 q 135 94 125 94 q 146 99 144 94 q 149 123 149 105 l 149 388 q 144 415 149 410 q 119 420 140 420 l 97 420 q 16 497 16 420 l 16 805 q 39 894 16 865 q 131 936 71 936 q 217 903 186 936 q 249 812 249 869 l 249 633 m 107 1213 l 174 1213 l 270 1019 l 192 1019 l 139 1134 l 85 1019 l 5 1019 l 107 1213 z "},"ŝ":{"ha":271,"x_min":3,"x_max":268,"o":"m 248 441 l 152 441 l 152 532 q 149 557 151 551 q 137 562 146 562 q 119 534 119 562 l 119 409 q 125 377 119 384 q 153 369 130 370 l 183 367 q 234 349 222 363 q 247 289 247 333 l 247 123 q 132 -4 247 -4 q 33 45 57 -4 q 23 123 23 65 l 23 197 l 119 197 l 119 127 q 136 92 119 92 q 152 125 152 92 l 152 245 q 148 272 152 267 q 129 279 144 278 l 94 280 q 25 363 25 283 l 25 546 q 140 657 25 657 q 223 625 199 657 q 248 513 248 591 l 248 441 m 105 944 l 172 944 l 268 750 l 190 750 l 137 865 l 83 750 l 3 750 l 105 944 z "},"Ş":{"ha":264,"x_min":16,"x_max":253,"o":"m 248 633 l 149 633 l 149 806 q 146 831 149 825 q 132 838 142 838 q 120 833 123 838 q 118 813 118 829 l 118 541 q 121 521 118 526 q 136 517 124 517 l 171 517 q 249 431 253 516 l 249 117 q 132 -7 249 -7 q 51 22 81 -7 q 20 102 20 52 l 20 296 l 119 296 l 119 123 q 121 99 119 104 q 134 94 124 94 q 146 99 143 94 q 149 123 149 105 l 149 388 q 144 415 149 410 q 119 420 139 420 l 96 420 q 16 497 16 420 l 16 805 q 39 894 16 865 q 130 936 71 936 q 217 903 185 936 q 248 812 248 869 l 248 633 m 82 -55 l 184 -55 l 90 -198 l 23 -198 l 82 -55 z "},"ş":{"ha":271,"x_min":23,"x_max":248,"o":"m 248 441 l 152 441 l 152 532 q 149 557 151 551 q 137 562 146 562 q 119 534 119 562 l 119 409 q 124 377 119 384 q 153 369 129 371 l 183 367 q 234 349 222 363 q 247 289 247 333 l 247 123 q 224 33 247 62 q 132 -4 194 -4 q 32 45 56 -4 q 23 123 23 62 l 23 197 l 119 197 l 119 127 q 135 92 119 92 q 152 125 152 92 l 152 245 q 148 272 152 266 q 128 279 144 278 l 94 280 q 24 363 24 283 l 24 546 q 140 657 24 657 q 223 625 198 657 q 248 513 248 591 l 248 441 m 96 -55 l 198 -55 l 105 -198 l 37 -198 l 96 -55 z "},"Š":{"ha":264,"x_min":5,"x_max":270,"o":"m 249 633 l 149 633 l 149 806 q 146 832 149 826 q 133 838 143 838 q 121 833 123 838 q 119 813 119 829 l 119 541 q 122 521 119 526 q 136 517 125 517 l 172 517 q 232 497 214 517 q 250 431 250 477 l 250 117 q 133 -7 250 -7 q 51 22 82 -7 q 20 102 20 52 l 20 296 l 119 296 l 119 123 q 122 99 119 104 q 135 94 125 94 q 146 99 144 94 q 149 123 149 105 l 149 388 q 144 415 149 410 q 119 420 140 420 l 97 420 q 16 497 16 420 l 16 805 q 39 894 16 865 q 131 936 71 936 q 217 903 186 936 q 249 812 249 869 l 249 633 m 168 1019 l 101 1019 l 5 1213 l 83 1213 l 136 1098 l 190 1213 l 270 1213 l 168 1019 z "},"š":{"ha":271,"x_min":3,"x_max":268,"o":"m 248 441 l 152 441 l 152 532 q 149 557 151 551 q 137 562 146 562 q 119 534 119 562 l 119 409 q 125 377 119 384 q 153 369 130 370 l 183 367 q 234 349 222 363 q 247 289 247 333 l 247 123 q 132 -4 247 -4 q 33 45 57 -4 q 23 123 23 65 l 23 197 l 119 197 l 119 127 q 136 92 119 92 q 152 125 152 92 l 152 245 q 148 272 152 267 q 129 279 144 278 l 94 280 q 25 363 25 283 l 25 546 q 140 657 25 657 q 223 625 199 657 q 248 513 248 591 l 248 441 m 165 750 l 99 750 l 3 944 l 81 944 l 134 829 l 188 944 l 268 944 l 165 750 z "},"Ţ":{"ha":263,"x_min":14,"x_max":249,"o":"m 14 926 l 249 926 l 249 829 l 182 829 l 182 0 l 82 0 l 82 829 l 14 829 l 14 926 m 62 -217 l 93 -55 l 181 -55 l 133 -217 l 62 -217 z "},"ţ":{"ha":189,"x_min":14,"x_max":174,"o":"m 51 842 l 141 842 l 141 652 l 174 652 l 174 562 l 141 562 l 141 0 l 51 0 l 51 562 l 14 562 l 14 652 l 51 652 l 51 842 m 22 -217 l 53 -55 l 141 -55 l 93 -217 l 22 -217 z "},"Ť":{"ha":263,"x_min":3,"x_max":269,"o":"m 14 926 l 249 926 l 249 829 l 182 829 l 182 0 l 82 0 l 82 829 l 14 829 l 14 926 m 166 1019 l 100 1019 l 3 1213 l 81 1213 l 135 1098 l 189 1213 l 269 1213 l 166 1019 z "},"ť":{"ha":279,"x_min":14,"x_max":288,"o":"m 51 842 l 141 842 l 141 652 l 174 652 l 174 562 l 141 562 l 141 0 l 51 0 l 51 562 l 14 562 l 14 652 l 51 652 l 51 842 m 168 764 l 199 926 l 288 926 l 239 764 l 168 764 z "},"ũ":{"ha":273,"x_min":-7,"x_max":280,"o":"m 155 652 l 245 652 l 245 132 q 230 42 245 67 q 137 -4 203 -4 q 28 116 28 -4 l 28 652 l 119 652 l 119 126 q 138 92 119 92 q 155 125 155 92 l 155 652 m 51 768 l -7 768 q -1 804 -5 789 q 28 859 7 839 q 78 879 50 879 q 147 851 110 879 q 189 831 175 831 q 222 874 213 831 l 280 874 q 194 764 270 764 q 135 786 167 764 q 83 811 100 811 q 51 768 60 811 z "},"Ū":{"ha":288,"x_min":20,"x_max":269,"o":"m 158 926 l 261 926 l 261 121 q 235 31 261 61 q 140 -7 201 -7 q 58 21 90 -7 q 28 89 28 49 l 28 926 l 125 926 l 125 117 q 142 92 125 92 q 157 115 157 92 l 158 926 m 20 1061 l 20 1131 l 269 1131 l 269 1061 l 20 1061 z "},"ū":{"ha":273,"x_min":12,"x_max":261,"o":"m 155 652 l 245 652 l 245 132 q 230 42 245 68 q 137 -4 203 -4 q 28 116 28 -4 l 28 652 l 119 652 l 119 126 q 138 92 119 92 q 155 125 155 92 l 155 652 m 12 786 l 12 857 l 261 857 l 261 786 l 12 786 z "},"ŭ":{"ha":273,"x_min":-1,"x_max":274,"o":"m 155 652 l 245 652 l 245 132 q 230 42 245 68 q 137 -4 203 -4 q 28 116 28 -4 l 28 652 l 119 652 l 119 126 q 138 92 119 92 q 155 125 155 92 l 155 652 m -1 886 l 65 886 q 136 818 73 818 q 197 852 178 818 l 208 886 l 274 886 q 136 755 260 755 q 40 789 75 755 q -1 886 4 823 z "},"Ů":{"ha":288,"x_min":28,"x_max":260,"o":"m 157 926 l 260 926 l 260 121 q 234 31 260 61 q 139 -7 201 -7 q 57 21 85 -7 q 28 102 28 50 l 28 926 l 124 926 l 125 117 q 141 92 125 92 q 157 115 157 92 l 157 926 m 144 1158 q 111 1144 124 1158 q 98 1113 98 1131 q 111 1080 98 1093 q 143 1067 124 1067 q 175 1080 161 1067 q 188 1112 188 1093 q 175 1144 188 1131 q 144 1158 161 1158 m 145 1213 q 215 1183 185 1213 q 244 1112 244 1154 q 211 1037 244 1066 q 144 1011 181 1011 q 73 1041 102 1011 q 43 1113 43 1070 q 73 1184 43 1154 q 145 1213 102 1213 z "},"ů":{"ha":273,"x_min":28,"x_max":245,"o":"m 155 652 l 245 652 l 245 132 q 230 42 245 67 q 137 -4 203 -4 q 28 116 28 -4 l 28 652 l 119 652 l 119 126 q 138 92 119 92 q 155 125 155 92 l 155 652 m 136 888 q 103 876 117 888 q 90 844 90 863 q 103 811 90 825 q 136 798 117 798 q 167 811 154 798 q 180 844 180 825 q 167 875 180 862 q 136 888 154 888 m 138 945 q 208 915 178 945 q 237 844 237 886 q 208 772 237 802 q 136 743 178 743 q 65 772 95 743 q 36 844 36 802 q 66 916 36 886 q 138 945 95 945 z "},"Ű":{"ha":288,"x_min":28,"x_max":316,"o":"m 157 926 l 260 926 l 260 121 q 234 31 260 61 q 139 -7 201 -7 q 57 21 85 -7 q 28 102 28 50 l 28 926 l 124 926 l 125 117 q 141 92 125 92 q 157 115 157 92 l 157 926 m 117 1215 l 197 1215 l 107 1019 l 41 1019 l 117 1215 m 236 1215 l 316 1215 l 226 1019 l 159 1019 l 236 1215 z "},"ű":{"ha":273,"x_min":28,"x_max":316,"o":"m 156 652 l 245 652 l 245 132 q 231 42 245 67 q 138 -4 204 -4 q 28 116 28 -4 l 28 652 l 119 652 l 119 126 q 138 92 119 92 q 156 125 156 92 l 156 652 m 117 946 l 197 946 l 106 749 l 41 749 l 117 946 m 235 946 l 316 946 l 225 749 l 159 749 l 235 946 z "},"Ų":{"ha":288,"x_min":28,"x_max":260,"o":"m 224 22 q 176 -91 176 -52 q 189 -123 176 -111 q 220 -136 201 -136 q 253 -133 231 -136 l 254 -195 q 205 -199 222 -199 q 126 -172 156 -199 q 96 -102 96 -146 q 130 -7 96 -58 q 28 102 28 0 l 28 926 l 124 926 l 125 117 q 141 92 125 92 q 157 115 157 92 l 157 926 l 260 926 l 260 121 q 224 22 260 54 z "},"ų":{"ha":273,"x_min":28,"x_max":245,"o":"m 214 22 q 184 -74 184 -41 q 195 -105 184 -93 q 224 -117 206 -117 q 243 -115 229 -117 l 243 -174 q 206 -177 217 -177 q 133 -152 161 -177 q 104 -85 104 -126 q 129 -3 104 -54 q 28 117 28 2 l 28 652 l 120 652 l 120 127 q 138 92 120 92 q 156 126 156 92 l 156 652 l 245 652 l 245 133 q 239 62 245 87 q 214 22 232 38 z "},"Ŵ":{"ha":437,"x_min":18,"x_max":418,"o":"m 313 926 l 418 926 l 334 0 l 237 0 l 217 503 l 184 0 l 81 0 l 18 926 l 125 926 l 145 496 l 182 926 l 254 926 l 281 491 l 313 926 m 193 1213 l 259 1213 l 355 1019 l 277 1019 l 224 1134 l 170 1019 l 90 1019 l 193 1213 z "},"Ŷ":{"ha":323,"x_min":18,"x_max":304,"o":"m 201 926 l 304 926 l 211 341 l 211 0 l 106 0 l 106 347 l 18 926 l 125 926 l 159 583 l 201 926 m 136 1213 l 202 1213 l 298 1019 l 220 1019 l 168 1134 l 113 1019 l 33 1019 l 136 1213 z "},"ŷ":{"ha":237,"x_min":-14,"x_max":252,"o":"m 134 652 l 224 652 l 224 -69 q 200 -177 224 -144 q 121 -209 176 -209 q 26 -173 52 -209 q 17 -120 17 -159 l 17 -81 l 104 -81 l 104 -99 q 117 -123 104 -123 q 132 -94 132 -123 l 132 16 q 80 -3 103 -3 q 32 17 50 -3 q 14 70 14 37 l 14 652 l 103 652 l 103 114 q 118 87 103 87 q 134 115 134 87 l 134 652 m 89 944 l 155 944 l 252 750 l 174 750 l 121 865 l 66 750 l -14 750 l 89 944 z "},"Ÿ":{"ha":323,"x_min":18,"x_max":304,"o":"m 201 926 l 304 926 l 211 341 l 211 0 l 106 0 l 106 347 l 18 926 l 125 926 l 159 583 l 201 926 m 233 1116 q 268 1101 253 1116 q 282 1066 282 1086 q 268 1030 282 1045 q 232 1015 253 1015 q 196 1030 211 1015 q 182 1066 182 1045 q 197 1102 182 1087 q 233 1116 212 1116 m 90 1113 q 124 1098 110 1113 q 139 1063 139 1084 q 124 1028 139 1042 q 90 1013 110 1013 q 55 1028 69 1013 q 40 1063 40 1042 q 55 1098 40 1084 q 90 1113 69 1113 z "},"Ź":{"ha":274,"x_min":14,"x_max":269,"o":"m 33 831 l 33 926 l 260 926 l 132 99 l 233 99 l 233 0 l 14 0 l 142 831 l 33 831 m 170 1215 l 269 1215 l 169 1019 l 94 1019 l 170 1215 z "},"ź":{"ha":241,"x_min":18,"x_max":256,"o":"m 22 566 l 22 653 l 222 653 l 118 85 l 212 84 l 212 0 l 18 0 l 120 566 l 22 566 m 157 946 l 256 946 l 156 749 l 81 749 l 157 946 z "},"Ż":{"ha":274,"x_min":14,"x_max":260,"o":"m 33 831 l 33 926 l 260 926 l 132 99 l 233 99 l 233 0 l 14 0 l 142 831 l 33 831 m 155 1113 q 190 1098 175 1113 q 204 1063 204 1084 q 190 1028 204 1042 q 155 1013 175 1013 q 119 1028 134 1013 q 105 1063 105 1042 q 120 1099 105 1084 q 155 1113 134 1113 z "},"ż":{"ha":241,"x_min":18,"x_max":222,"o":"m 22 566 l 22 653 l 222 653 l 118 85 l 212 84 l 212 0 l 18 0 l 120 566 l 22 566 m 120 846 q 160 829 143 846 q 176 788 176 812 q 160 748 176 764 q 119 731 143 731 q 79 748 96 731 q 63 789 63 764 q 80 829 63 812 q 120 846 96 846 z "},"Ž":{"ha":274,"x_min":14,"x_max":286,"o":"m 33 831 l 33 926 l 260 926 l 132 99 l 233 99 l 233 0 l 14 0 l 142 831 l 33 831 m 183 1019 l 117 1019 l 20 1213 l 98 1213 l 151 1098 l 205 1213 l 286 1213 l 183 1019 z "},"ž":{"ha":241,"x_min":-1,"x_max":264,"o":"m 22 566 l 22 653 l 222 653 l 118 85 l 212 84 l 212 0 l 18 0 l 120 566 l 22 566 m 162 750 l 96 750 l -1 944 l 77 944 l 131 829 l 184 944 l 264 944 l 162 750 z "},"ƒ":{"ha":440,"x_min":28,"x_max":412,"o":"m 273 588 l 361 588 l 353 519 l 266 519 l 214 47 q 172 -144 198 -90 q 72 -208 141 -208 q 28 -202 52 -208 l 37 -116 q 68 -121 56 -121 q 120 -80 104 -121 q 150 83 137 -38 l 197 519 l 119 519 l 127 588 l 205 588 l 220 729 q 260 899 233 848 q 359 962 292 962 q 412 956 381 962 l 403 870 q 365 875 380 875 q 314 842 331 875 q 288 726 296 807 l 273 588 z "},"Ǎ":{"ha":330,"x_min":18,"x_max":311,"o":"m 79 926 l 229 926 l 311 0 l 205 0 l 192 179 l 132 179 l 122 0 l 18 0 l 79 926 m 186 277 l 157 710 l 136 277 l 186 277 m 188 1019 l 121 1019 l 25 1213 l 103 1213 l 156 1098 l 210 1213 l 290 1213 l 188 1019 z "},"ǎ":{"ha":264,"x_min":-3,"x_max":262,"o":"m 113 440 l 23 440 l 23 542 q 39 610 22 584 q 132 657 69 657 q 227 597 203 657 q 236 525 236 574 l 236 0 l 147 0 l 146 18 q 98 -4 123 -4 q 24 79 24 -4 l 24 287 q 92 369 24 369 q 142 355 119 369 l 140 538 l 140 539 q 127 558 140 558 q 113 537 113 558 l 113 440 m 115 262 l 115 112 q 129 90 115 90 q 143 113 143 90 l 143 256 q 128 281 143 281 q 115 262 115 281 m 159 750 l 93 750 l -3 944 l 75 944 l 128 829 l 182 944 l 262 944 l 159 750 z "},"Ǔ":{"ha":288,"x_min":16,"x_max":281,"o":"m 157 926 l 260 926 l 260 121 q 234 31 260 61 q 139 -7 201 -7 q 58 21 90 -7 q 28 89 28 49 l 28 926 l 124 926 l 125 117 q 141 92 125 92 q 157 115 157 92 l 157 926 m 179 1019 l 113 1019 l 16 1213 l 94 1213 l 148 1098 l 201 1213 l 281 1213 l 179 1019 z "},"ǔ":{"ha":273,"x_min":3,"x_max":269,"o":"m 155 652 l 245 652 l 245 132 q 230 42 245 67 q 136 -4 203 -4 q 27 116 27 -4 l 27 652 l 119 652 l 119 126 q 138 92 119 92 q 155 125 155 92 l 155 652 m 166 750 l 100 750 l 3 944 l 81 944 l 135 829 l 189 944 l 269 944 l 166 750 z "},"Ǧ":{"ha":279,"x_min":14,"x_max":279,"o":"m 142 358 l 142 476 l 256 476 l 256 106 q 225 23 256 54 q 142 -7 195 -7 q 58 20 88 -7 q 28 98 28 48 l 28 795 q 47 887 28 856 q 142 936 79 936 q 223 907 194 936 q 253 825 253 878 l 253 629 l 160 629 l 160 806 q 157 833 160 827 q 144 840 154 840 q 126 818 126 840 l 126 105 q 142 85 126 85 q 159 108 159 85 l 159 358 l 142 358 m 176 1019 l 110 1019 l 14 1213 l 92 1213 l 145 1098 l 199 1213 l 279 1213 l 176 1019 z "},"ǧ":{"ha":271,"x_min":3,"x_max":268,"o":"m 149 652 l 243 652 l 243 -84 q 233 -157 243 -125 q 130 -221 213 -221 q 45 -180 68 -221 q 32 -88 32 -157 l 121 -88 q 120 -104 120 -91 l 120 -118 q 133 -134 120 -134 q 146 -112 146 -134 l 147 16 q 96 -3 122 -3 q 46 22 64 -3 q 28 89 28 47 l 28 548 q 95 652 28 652 q 148 631 125 652 l 149 652 m 120 538 l 120 106 q 132 85 120 85 q 147 104 147 85 l 147 539 q 134 563 147 563 q 120 538 120 563 m 165 750 l 99 750 l 3 944 l 81 944 l 134 829 l 188 944 l 268 944 l 165 750 z "},"Ș":{"ha":264,"x_min":16,"x_max":253,"o":"m 248 633 l 149 633 l 149 806 q 146 831 149 825 q 132 838 142 838 q 120 833 123 838 q 118 813 118 829 l 118 541 q 121 521 118 526 q 136 517 124 517 l 171 517 q 249 431 253 516 l 249 117 q 132 -7 249 -7 q 51 22 81 -7 q 20 102 20 52 l 20 296 l 119 296 l 119 123 q 121 99 119 104 q 134 94 124 94 q 146 99 143 94 q 149 123 149 105 l 149 388 q 144 415 149 410 q 119 420 139 420 l 96 420 q 16 497 16 420 l 16 805 q 39 894 16 865 q 130 936 71 936 q 217 903 185 936 q 248 812 248 869 l 248 633 m 62 -217 l 94 -55 l 182 -55 l 134 -217 l 62 -217 z "},"ș":{"ha":271,"x_min":23,"x_max":248,"o":"m 248 441 l 152 441 l 152 532 q 149 557 151 551 q 137 562 146 562 q 119 534 119 562 l 119 409 q 124 377 119 384 q 153 369 129 371 l 183 367 q 234 349 222 363 q 247 289 247 333 l 247 123 q 224 33 247 62 q 132 -4 194 -4 q 32 45 56 -4 q 23 123 23 62 l 23 197 l 119 197 l 119 127 q 135 92 119 92 q 152 125 152 92 l 152 245 q 148 272 152 266 q 128 279 144 278 l 94 280 q 24 363 24 283 l 24 546 q 140 657 24 657 q 223 625 198 657 q 248 513 248 591 l 248 441 m 65 -217 l 96 -55 l 185 -55 l 137 -217 l 65 -217 z "},"Ț":{"ha":263,"x_min":14,"x_max":249,"o":"m 14 926 l 249 926 l 249 829 l 182 829 l 182 0 l 82 0 l 82 829 l 14 829 l 14 926 m 62 -217 l 93 -55 l 181 -55 l 133 -217 l 62 -217 z "},"ț":{"ha":189,"x_min":14,"x_max":174,"o":"m 51 842 l 141 842 l 141 652 l 174 652 l 174 562 l 141 562 l 141 0 l 51 0 l 51 562 l 14 562 l 14 652 l 51 652 l 51 842 m 22 -217 l 53 -55 l 141 -55 l 93 -217 l 22 -217 z "},"ˆ":{"ha":358,"x_min":46,"x_max":311,"o":"m 149 944 l 215 944 l 311 750 l 233 750 l 180 865 l 126 750 l 46 750 l 149 944 z "},"ˇ":{"ha":376,"x_min":56,"x_max":321,"o":"m 218 750 l 152 750 l 56 944 l 134 944 l 187 829 l 241 944 l 321 944 l 218 750 z "},"ˉ":{"ha":547,"x_min":149,"x_max":399,"o":"m 149 786 l 149 857 l 399 857 l 399 786 l 149 786 z "},"˘":{"ha":368,"x_min":46,"x_max":321,"o":"m 46 886 l 113 886 q 184 818 121 818 q 244 852 226 818 l 255 886 l 321 886 q 184 755 308 755 q 87 789 123 755 q 46 886 52 823 z "},"˙":{"ha":206,"x_min":46,"x_max":159,"o":"m 104 846 q 143 829 126 846 q 159 788 159 812 q 143 748 159 764 q 102 731 126 731 q 62 748 79 731 q 46 789 46 764 q 63 829 46 812 q 104 846 79 846 z "},"˚":{"ha":294,"x_min":46,"x_max":247,"o":"m 146 888 q 114 875 127 888 q 100 844 100 862 q 114 811 100 824 q 146 798 127 798 q 177 811 164 798 q 191 843 191 824 q 177 875 191 861 q 146 888 164 888 m 148 945 q 218 915 188 945 q 247 844 247 886 q 218 772 247 802 q 146 743 188 743 q 75 772 105 743 q 46 844 46 802 q 76 916 46 886 q 148 945 105 945 z "},"˛":{"ha":374,"x_min":155,"x_max":293,"o":"m 196 27 l 267 26 q 235 -75 235 -40 q 246 -105 235 -94 q 275 -117 257 -117 q 293 -116 278 -117 l 293 -174 q 256 -178 267 -178 q 183 -152 211 -178 q 155 -85 155 -127 q 196 27 155 -45 z "},"˜":{"ha":379,"x_min":46,"x_max":333,"o":"m 104 768 l 46 768 q 52 804 48 789 q 81 859 60 839 q 131 879 102 879 q 200 851 163 879 q 242 831 228 831 q 275 874 266 831 l 333 874 q 247 764 323 764 q 188 786 220 764 q 136 811 153 811 q 104 768 113 811 z "},"˝":{"ha":505,"x_min":121,"x_max":397,"o":"m 197 946 l 278 946 l 188 749 l 121 749 l 197 946 m 316 946 l 397 946 l 307 749 l 240 749 l 316 946 z "},"Ẅ":{"ha":437,"x_min":18,"x_max":418,"o":"m 313 926 l 418 926 l 334 0 l 237 0 l 217 503 l 184 0 l 81 0 l 18 926 l 125 926 l 145 496 l 182 926 l 254 926 l 281 491 l 313 926 m 290 1116 q 325 1101 310 1116 q 339 1066 339 1086 q 325 1030 339 1045 q 289 1015 310 1015 q 253 1030 268 1015 q 239 1066 239 1045 q 254 1102 239 1087 q 290 1116 269 1116 m 148 1113 q 182 1098 168 1113 q 197 1063 197 1084 q 182 1028 197 1042 q 147 1013 168 1013 q 112 1028 126 1013 q 98 1063 98 1042 q 112 1099 98 1084 q 148 1113 127 1113 z "},"‑":{"ha":198,"x_min":28,"x_max":170,"o":"m 28 385 l 28 481 l 170 481 l 170 385 l 28 385 z "},"‒":{"ha":271,"x_min":28,"x_max":243,"o":"m 28 385 l 28 481 l 243 481 l 243 385 l 28 385 z "},"–":{"ha":271,"x_min":28,"x_max":243,"o":"m 28 385 l 28 481 l 243 481 l 243 385 l 28 385 z "},"—":{"ha":355,"x_min":0,"x_max":355,"o":"m 0 385 l 0 481 l 355 481 l 355 385 l 0 385 z "},"―":{"ha":355,"x_min":0,"x_max":355,"o":"m 0 385 l 0 481 l 355 481 l 355 385 l 0 385 z "},"‘":{"ha":196,"x_min":28,"x_max":168,"o":"m 28 931 l 132 931 l 168 755 l 85 755 l 28 931 z "},"’":{"ha":196,"x_min":28,"x_max":168,"o":"m 28 755 l 65 931 l 168 931 l 112 755 l 28 755 z "},"‚":{"ha":197,"x_min":24,"x_max":164,"o":"m 24 -97 l 61 79 l 164 79 l 108 -97 l 24 -97 z "},"“":{"ha":336,"x_min":28,"x_max":309,"o":"m 168 931 l 272 931 l 309 755 l 225 755 l 168 931 m 28 931 l 132 931 l 168 755 l 85 755 l 28 931 z "},"”":{"ha":336,"x_min":28,"x_max":309,"o":"m 28 755 l 65 931 l 168 931 l 112 755 l 28 755 m 169 755 l 205 931 l 309 931 l 252 755 l 169 755 z "},"„":{"ha":336,"x_min":24,"x_max":304,"o":"m 24 -97 l 61 79 l 164 79 l 108 -97 l 24 -97 m 165 -97 l 201 79 l 304 79 l 248 -97 l 165 -97 z "},"†":{"ha":427,"x_min":28,"x_max":399,"o":"m 399 581 l 264 581 l 264 -191 l 163 -191 l 163 581 l 28 581 l 28 675 l 163 675 l 163 926 l 264 926 l 264 675 l 399 675 l 399 581 z "},"‡":{"ha":427,"x_min":28,"x_max":399,"o":"m 28 155 l 163 155 l 163 581 l 28 581 l 28 675 l 163 675 l 163 926 l 264 926 l 264 675 l 399 675 l 399 581 l 264 581 l 264 155 l 399 155 l 399 60 l 264 60 l 264 -191 l 163 -191 l 163 60 l 28 60 l 28 155 z "},"•":{"ha":262,"x_min":54,"x_max":208,"o":"m 132 551 q 186 528 163 551 q 208 473 208 505 q 186 419 208 441 q 131 396 163 396 q 77 419 99 396 q 54 473 54 441 q 77 528 54 506 q 132 551 99 551 z "},"…":{"ha":510,"x_min":28,"x_max":482,"o":"m 88 121 q 131 103 114 121 q 148 60 148 86 q 130 17 148 35 q 88 -1 113 -1 q 45 17 63 -1 q 28 60 28 35 q 45 104 28 87 q 88 121 62 121 m 256 121 q 298 103 281 121 q 315 60 315 86 q 298 17 315 35 q 256 -1 281 -1 q 213 17 231 -1 q 195 60 195 35 q 212 104 195 87 q 256 121 229 121 m 422 121 q 465 103 448 121 q 482 60 482 86 q 465 17 482 35 q 422 -1 448 -1 q 380 17 397 -1 q 362 60 362 35 q 379 104 362 87 q 422 121 396 121 z "},"‰":{"ha":833,"x_min":28,"x_max":806,"o":"m 107 23 l 356 907 l 456 888 l 206 2 l 107 23 m 543 304 l 543 113 q 430 -16 543 -16 q 329 47 353 -16 q 319 107 319 74 l 319 298 q 331 370 319 340 q 370 418 343 400 q 432 435 397 435 q 514 401 484 435 q 543 304 543 366 m 446 111 l 446 313 q 431 336 446 336 q 415 312 415 336 l 415 109 q 431 85 415 85 q 446 111 446 85 m 251 807 l 251 616 q 140 487 251 487 q 28 610 28 487 l 28 801 q 79 920 28 886 q 140 938 106 938 q 222 903 193 938 q 251 807 251 869 m 153 614 l 153 816 q 138 839 153 839 q 123 814 123 839 l 123 611 q 138 587 123 587 q 153 614 153 587 m 806 304 l 806 113 q 692 -16 806 -16 q 591 47 614 -16 q 582 107 582 74 l 582 298 q 593 370 582 340 q 632 418 605 400 q 694 435 660 435 q 776 401 747 435 q 806 304 806 366 m 708 111 l 708 313 q 693 336 708 336 q 677 312 677 336 l 677 109 q 693 85 677 85 q 708 111 708 85 z "},"‹":{"ha":281,"x_min":28,"x_max":253,"o":"m 253 212 l 253 113 l 28 304 l 28 379 l 253 570 l 253 471 l 96 342 l 253 212 z "},"›":{"ha":281,"x_min":28,"x_max":253,"o":"m 28 471 l 28 570 l 253 379 l 253 304 l 28 113 l 28 212 l 185 342 l 28 471 z "},"‾":{"ha":420,"x_min":0,"x_max":420,"o":"m 0 1179 l 420 1179 l 420 1099 l 0 1099 l 0 1179 z "},"⁄":{"ha":308,"x_min":28,"x_max":327,"o":"m 28 0 l 237 917 l 327 917 l 117 0 l 28 0 z "},"₣":{"ha":386,"x_min":28,"x_max":381,"o":"m 210 0 l 210 513 l 299 513 l 301 482 q 355 507 332 507 q 381 500 370 507 l 381 390 q 346 408 363 408 q 311 385 319 408 q 307 347 307 377 l 307 0 l 210 0 m 28 0 l 28 926 l 210 926 l 210 834 l 130 834 l 130 513 l 181 513 l 181 420 l 130 420 l 130 0 l 28 0 z "},"€":{"ha":301,"x_min":5,"x_max":283,"o":"m 153 814 l 153 570 l 235 570 l 227 499 l 153 499 l 153 437 l 217 437 l 209 366 l 153 366 l 153 122 q 156 97 153 103 q 170 92 159 92 q 186 115 186 92 l 186 262 l 282 262 l 282 113 q 262 38 282 66 q 167 -7 230 -7 q 85 21 115 -7 q 56 96 56 49 l 56 366 l 5 366 l 13 437 l 56 437 l 56 499 l 5 499 l 13 570 l 56 570 l 56 803 q 168 936 56 936 q 252 909 220 936 q 283 839 283 882 l 283 667 l 187 667 l 187 810 q 184 834 187 829 q 170 839 181 839 q 153 814 153 839 z "},"™":{"ha":699,"x_min":28,"x_max":671,"o":"m 442 926 l 494 610 l 546 926 l 671 926 l 671 371 l 572 371 l 571 586 l 533 371 l 455 371 l 417 586 l 416 371 l 317 371 l 317 926 l 442 926 m 28 926 l 263 926 l 263 829 l 197 829 l 197 371 l 96 371 l 96 829 l 28 829 l 28 926 z "},"Ω":{"ha":597,"x_min":28,"x_max":569,"o":"m 257 0 l 28 0 l 28 96 l 184 96 q 34 505 34 240 q 123 840 34 707 q 298 949 196 949 q 474 840 401 949 q 563 505 563 706 q 414 96 563 240 l 569 96 l 569 0 l 340 0 l 340 91 q 431 205 399 144 q 494 494 494 324 q 432 758 494 646 q 300 852 378 852 q 172 771 224 852 q 102 494 102 665 q 257 91 102 231 l 257 0 z "},"∂":{"ha":692,"x_min":28,"x_max":396,"o":"m 332 517 q 300 669 324 595 q 243 784 275 745 q 88 882 163 875 l 101 939 q 209 892 166 930 q 350 666 304 808 q 396 366 396 517 q 355 107 396 211 q 293 17 332 50 q 210 -16 254 -16 q 93 56 142 -16 q 28 295 28 152 q 92 534 28 437 q 209 606 141 606 q 332 517 273 606 m 216 522 q 130 470 165 522 q 84 294 84 399 q 125 130 84 199 q 212 68 160 68 q 302 135 266 68 q 339 298 339 201 q 298 469 339 404 q 216 522 264 522 z "},"∆":{"ha":604,"x_min":28,"x_max":576,"o":"m 576 0 l 28 0 l 263 926 l 335 926 l 576 0 m 300 833 l 106 81 l 495 81 l 300 833 z "},"∏":{"ha":612,"x_min":28,"x_max":584,"o":"m 28 970 l 28 1042 l 584 1042 l 584 970 l 509 970 l 509 -275 l 584 -275 l 584 -347 l 376 -347 l 376 -275 l 454 -275 l 454 970 l 157 970 l 157 -275 l 234 -275 l 234 -347 l 28 -347 l 28 -275 l 103 -275 l 103 970 l 28 970 z "},"∑":{"ha":545,"x_min":28,"x_max":517,"o":"m 28 1042 l 509 1042 l 509 728 l 463 728 l 457 970 l 94 970 l 307 377 l 92 -275 l 467 -275 l 470 -35 l 517 -35 l 517 -347 l 28 -347 l 28 -269 l 244 379 l 28 966 l 28 1042 z "},"−":{"ha":317,"x_min":28,"x_max":290,"o":"m 28 385 l 28 481 l 290 481 l 290 385 l 28 385 z "},"∕":{"ha":308,"x_min":28,"x_max":327,"o":"m 28 0 l 237 917 l 327 917 l 117 0 l 28 0 z "},"∙":{"ha":102,"x_min":-21,"x_max":123,"o":"m -21 449 l 123 449 l 123 310 l -21 310 l -21 449 z "},"√":{"ha":561,"x_min":28,"x_max":533,"o":"m 357 1094 l 533 1094 l 533 1023 l 414 1023 l 176 -20 l 75 424 l 28 424 l 28 496 l 133 496 l 180 278 l 357 1094 z "},"∞":{"ha":615,"x_min":28,"x_max":587,"o":"m 307 532 q 460 684 375 684 q 525 657 498 684 q 587 471 587 597 q 535 286 587 352 q 463 250 505 250 q 308 402 379 250 q 155 250 237 250 q 91 277 118 250 q 28 467 28 339 q 92 657 28 596 q 156 684 120 684 q 307 532 237 684 m 340 467 q 456 334 403 334 q 502 467 502 334 q 454 600 502 600 q 400 569 427 600 q 340 467 374 538 m 275 467 q 159 600 213 600 q 130 583 140 600 q 107 463 107 545 q 121 369 107 403 q 158 334 134 334 q 275 467 212 334 z "},"∫":{"ha":344,"x_min":28,"x_max":316,"o":"m 316 845 l 269 845 q 269 876 269 857 q 262 967 269 944 q 235 991 256 991 q 207 961 214 991 q 201 864 201 939 l 201 -101 q 199 -222 201 -193 q 187 -279 195 -255 q 117 -347 165 -347 q 51 -297 71 -347 q 28 -134 30 -247 l 77 -134 q 82 -252 77 -228 q 115 -296 90 -296 q 145 -261 138 -296 q 150 -132 150 -241 l 150 770 q 159 956 150 911 q 233 1042 178 1042 q 306 961 290 1042 q 316 845 313 926 z "},"≈":{"ha":713,"x_min":28,"x_max":433,"o":"m 402 718 l 433 668 q 378 545 404 582 q 322 507 353 507 q 288 518 305 507 q 191 587 271 528 q 139 612 157 612 q 100 584 118 612 q 58 487 82 556 l 28 538 q 83 660 58 624 q 138 696 109 696 q 243 639 167 696 q 321 591 305 591 q 402 718 361 591 m 402 474 l 433 425 q 378 301 404 338 q 322 263 353 263 q 288 274 305 263 q 191 344 269 286 q 139 368 157 368 q 100 340 118 368 q 58 243 82 313 l 28 294 q 83 417 58 381 q 138 453 109 453 q 243 395 166 453 q 321 347 305 347 q 402 474 361 347 z "},"≠":{"ha":361,"x_min":28,"x_max":334,"o":"m 313 663 l 277 559 l 334 559 l 334 473 l 247 473 l 216 386 l 334 386 l 334 299 l 186 299 l 146 184 l 79 213 l 109 299 l 28 299 l 28 386 l 139 386 l 169 473 l 28 473 l 28 559 l 199 559 l 246 692 l 313 663 z "},"≤":{"ha":386,"x_min":28,"x_max":358,"o":"m 28 174 l 358 174 l 358 100 l 28 100 l 28 174 m 28 469 l 358 646 l 358 554 l 127 434 l 358 315 l 358 222 l 28 400 l 28 469 z "},"≥":{"ha":386,"x_min":28,"x_max":358,"o":"m 28 174 l 358 174 l 358 100 l 28 100 l 28 174 m 28 554 l 28 646 l 358 469 l 358 400 l 28 222 l 28 315 l 258 434 l 28 554 z "},"◊":{"ha":475,"x_min":28,"x_max":448,"o":"m 28 465 l 237 947 l 448 465 l 237 -21 l 28 465 m 344 465 l 237 717 l 132 465 l 237 214 l 344 465 z "},"ﬁ":{"ha":336,"x_min":12,"x_max":327,"o":"m 216 652 l 309 652 l 309 0 l 216 0 l 216 652 m 135 652 l 168 652 l 168 566 l 135 566 l 135 0 l 47 0 l 44 566 l 12 566 l 12 652 l 42 652 l 42 821 q 54 882 42 859 q 90 918 66 903 q 138 932 114 932 q 167 923 155 932 l 167 834 q 157 837 161 837 q 135 806 135 837 l 135 652 m 266 846 q 310 827 293 846 q 327 780 327 809 q 309 735 327 753 q 266 718 292 718 q 220 736 239 718 q 201 781 201 754 q 220 827 201 808 q 266 846 238 846 z "},"ﬂ":{"ha":336,"x_min":12,"x_max":309,"o":"m 135 652 l 168 652 l 168 566 l 135 566 l 135 0 l 47 0 l 44 566 l 12 566 l 12 652 l 42 652 l 42 821 q 54 882 42 859 q 90 918 66 903 q 138 932 114 932 q 167 923 155 932 l 167 834 q 157 837 161 837 q 135 806 135 837 l 135 652 m 216 926 l 309 926 l 309 0 l 216 0 l 216 926 z "}}}
